
<svg id="Layer_1" data-name="Layer 1" xmlns="http://www.w3.org/2000/svg" viewBox="0 0 613 793">
  <defs>
    <style>
      .cls-1 {
        fill: #181818;
      }

      .cls-2 {
        fill: #4a3722;
      }

      .cls-3 {
        fill: #ebbe9f;
      }

      .cls-4 {
        fill: #e5e4e4;
      }

      .cls-5 {
        fill: #946e44;
      }

      .cls-6 {
        fill: #e9b99c;
      }

      .cls-7 {
        fill: #9e7448;
      }

      .cls-8 {
        fill: #333231;
      }

      .cls-9 {
        fill: #211d19;
      }

      .cls-10 {
        fill: #372a21;
      }

      .cls-11 {
        fill: #e1aa8f;
      }

      .cls-12 {
        fill: #656565;
      }

      .cls-13 {
        fill: #805e3b;
      }

      .cls-14 {
        fill: #d3d3d3;
      }

      .cls-15 {
        fill: #d65053;
      }

      .cls-16 {
        fill: #23201c;
      }

      .cls-17 {
        fill: #f5f5f4;
      }

      .cls-18 {
        fill: #efceb2;
      }

      .cls-19 {
        fill: #eac9b0;
      }

      .cls-20 {
        fill: #5a473a;
      }

      .cls-21 {
        fill: #d79680;
      }

      .cls-22 {
        fill: #e7bfa2;
      }

      .cls-23 {
        fill: #27241f;
      }

      .cls-24 {
        fill: #dfdfe0;
        stroke: #dfdfe0;
        stroke-miterlimit: 10;
      }

      .cls-25 {
        fill: #2a221b;
      }

      .cls-26 {
        fill: #e8c4a6;
      }

      .cls-27 {
        fill: #9b7245;
      }

      .cls-28 {
        fill: #eecdb2;
      }

      .cls-29 {
        fill: #d08c79;
      }
    </style>
  </defs>
  <rect class="cls-24" x=".5" y=".5" width="612" height="792"/>
  <path class="cls-27" d="M290.09,68.65s.06-.01.26.36c6.51-1.98,12.85-4.26,19.13-6.69,20.54-7.95,41.3-10.91,61.86-.73,10.09,5,19.91,10.8,29.07,17.34,8.88,6.34,16.76,14.09,25.22,21.53,8.78,12.66,18.31,24.51,25.86,37.51,11.78,20.28,17.58,42.94,22.19,65.76,2.79,13.8,4.54,27.8,6.49,41.81-.65.12-1.03.15-1.46-.2-1.31-3.24-2.35-6.24-3.87-8.97-3.28-5.89-9.25-7.2-14.71-3.21-2.11,1.54-4.19,3.38-5.63,5.53-2.73,4.06-4.98,8.43-8.11,13.85-6.68-4.23-13.31-8.43-19.64-12.87,1.18-1.11,2.01-2.65,2.95-2.73,3.19-.24,3.04-2.37,3.39-4.34,1.28.77,2.27,1.36,3.27,1.94-.46-2.01-1.41-3.34-2.53-4.5-10.76-11.1-17.55-24.54-23.24-38.7-4.89-12.19-9.52-24.56-15.45-36.25-9.13-17.99-22.86-31.77-41.65-40.59-10.54-5.55-21.43-8.24-32.12-8.24,10.36,3.34,21.37,6.9,32.66,10.63,9.24,7.24,18.9,13.59,26.96,21.54,9.55,9.42,15.04,21.8,19.89,34.24,6.58,16.84,12.74,33.87,22.6,49.32-4.15,1.45-8.04,2.65-12.22,3.67-2.14-2.51-4.2-4.72-5.82-7.22-6.42-9.9-13.29-19.57-18.94-29.91-18.65-34.14-48.4-53.23-84.76-64.26-2.22-16.55-6.79-31.84-15.41-45.75.23,3.13,1.47,5.92,2.36,8.82,3.8,12.48,7.49,24.98,10.97,37.71-5.1,8.58-9.88,16.97-14.8,25.28-11.24,19.03-26.03,35.37-39.88,52.43-20.66,25.44-42.72,49.38-70.28,67.6-9.29,6.14-18.57,12.4-29.89,14.02.09-.83.19-1.29.31-2.11,4.67-3.64,3.09-7.45,1.14-11.48-.91-1.88-1.23-4.06-1.53-6.33,2.83-7.07,5.38-13.91,8.09-21.06,15.45-32.47,33.06-63.2,56.98-89.84,13.58-15.14,27.68-29.86,45.98-39.52,4.69-2.48,9.91-3.96,14.89-5.9-.13-.43-.26-.86-.4-1.3-4.67,1.41-9.6,2.28-13.97,4.32-14.12,6.58-25.28,17.22-36.18,27.98-18.34,18.11-34.24,38.27-47.08,60.59-7.95,13.81-14.42,28.46-21.81,42.99-2.68,6.83-5.1,13.42-7.82,19.82-1.6-2.63-2.59-5.34-4.3-7.45-2.47-3.05-5.47-5.66-8.33-8.86.2-2.37.52-4.33.76-6.3,3.61-29.6,13.91-56.62,31.22-80.92,4.31-6.05,8.82-11.95,13.54-18.03,6.58-5.77,12.62-11.71,19.18-17,18.44-14.89,38.72-26.6,61.67-34.29h12.95c-4.31-2.7-8.81-2.34-13.78-.86-2.8.58-5.28.99-7.59,1.84-17.42,6.41-33.6,15.22-48.05,26.8-8.86,7.1-16.77,15.4-25.39,23.33-28.1,29.97-43.33,65.17-46.07,105.89-5.78-1.29-9.23-.26-11.32,5.27-2.51,6.64-3.7,13.79-5.8,20.74-1.25,0-2.16-.01-3.11-.43.05-1.74.13-3.08.44-4.53.14-.75.05-1.39-.03-2.5,2.24-17.6,3.92-34.83,6.88-51.83,2.22-12.72,4.79-25.67,9.5-37.61,9.21-23.35,22.8-44.15,39.55-63.14,16.6-18.81,35.7-33.46,59.45-41.48,6.79-2.29,14.38-3.61,21.49-3.22,9.15.5,18.18,3.17,27.54,5.15,4.18,1.26,8.09,5.35,12.35.1,1.55-1.6,2.74-3.08,3.93-4.56M404.84,108.97c-.2-.25-.44-.45-.94-1.04-.21-.27-.47-.46-1.07-.94-.2-.25-.44-.45-.94-1.25-14.33-14.42-44.36-33.79-60.73-27.84,1.68.29,2.75.64,3.8.63,9.91-.15,19.12,2.37,27.31,7.9,9.87,6.67,19.5,13.69,29.5,20.96.2.25.44.44.97,1.02.21.26.46.46,1.03.99.2.25.44.45.97,1.01.21.25.45.45.99,1.23,29.64,32.99,43.35,72.84,49.87,115.9.33-3.58.36-7.05-.19-10.43-4.65-28.12-12.79-55.13-28.01-79.41-6.1-9.73-14.12-18.26-21.52-27.74-.19-.27-.45-.47-1.03-.96M154.3,269.73c.48-.31.97-.63,2.11-1.09,9.16-10.06,18.95-19.62,27.3-30.31,8.79-11.24,15.55-24.08,24.38-35.29,13.67-17.37,28.39-33.93,42.56-50.91,4.4-5.27,8.49-10.81,12.72-16.22-.43-.38-.86-.76-1.29-1.15-.67.87-1.3,1.76-2,2.6-12.35,14.6-25.01,28.96-36.99,43.87-10.82,13.47-21.36,27.21-31.16,41.42-10.23,14.83-20.44,29.56-33.54,42.06-1.14,1.08-1.84,2.62-3.33,3.96-.43.37-.86.73-1.52,1.19l-.02.27s.18-.41.78-.4M438.61,235.23c-.25.04-.49.09-.74.13.19.22.38.45.74,1.12.49.08.97.17,1.46.25-.4-.38-.8-.75-1.46-1.5Z"/>
  <path class="cls-28" d="M531.52,733.77c-.21.05-.41.11-1.06.62-3,.67-5.69.46-8.1,1.18-11.09,3.32-22.01,2.2-32.85-.96-1.39-.4-3.05-1.59-3.59-2.85-2.09-4.86-3.77-9.9-5.26-15.03,3.53-3.48,5.28-7.27,3.42-11.82-5.31-12.98-10.74-25.91-16.14-38.85-.89-2.12-2.15-4.11-2.83-6.29-2.97-9.56-5.67-19.21-8.71-28.75-3.09-9.71-6.83-19.23-9.54-29.04-1.51-5.48-4.19-9.61-9.09-10.57-2.37-6.16-4.58-11.99-6.73-17.97.01-.39-.12-.55-.37-1-2.96-8.44-5.88-16.5-8.81-24.57-2.23-6.14-4.48-12.28-6.56-18.62-.08-.63-.33-1.06-.58-1.49v-.3c-.27-.79-.54-1.29-.84-2.13-.23-.75-.42-1.15-.61-1.78-.29-.41-.58-.59-1.29-.81-.51.24-.61.5-.61.61-.09-.44-.26-.72.06-.91,1.9-4.98-2.99-5.89-5.39-8.82-4.43-5.51-9.59-10.28-12.78-16.11-5.98-10.91-3.8-22.53.77-33.24,4.73-11.1,11-21.53,16.31-32.39,1.3-2.65,2.41-6.02,1.96-8.79-1.44-9.01-3.57-17.91-5.63-26.8-.3-1.28-1.66-2.32-2.44-3.77.06-.73.04-1.15.32-1.77,1.37-4.52-1.89-3.63-4.48-4.02-4.98-3.85-9.88-7.34-14.26-11.4-3.43-3.18-5.67-7.26-4.9-12.78,1.5.39,2.68.47,3.62.99,9.9,5.46,19.79,10.93,29.58,16.59,1.25.72,2.16,2.41,2.74,3.85,4.32,10.8,8.47,21.66,12.78,32.45.65,1.63,1.85,3.05,2.8,4.56.93-1.09,1.11-1.77.91-2.31-4.81-12.58-9.62-25.16-14.54-37.69-.52-1.33-1.62-2.49-2.64-3.55-6.99-7.27-14.3-14.27-20.95-21.83-3.23-3.67-5.52-8.26-7.77-12.68-.89-1.76-.5-4.16-.69-6.28.48-.2.97-.41,1.45-.61,2.28,1.56,4.7,2.95,6.81,4.72,6,5.02,11.47,10.78,17.88,15.19,13.21,9.08,21.04,20.93,23.31,36.96,1.02,7.19,4.21,14.07,6.41,21.08.68-.2,1.35-.39,2.03-.59-4.15-14.51-8.3-29.02-12.04-43.6,1.95-1.93,3.5-3.78,5.22-5.31,3.8,10.96,7.42,21.6,11.08,32.61.94,5.72,1.84,11.06,2.62,16.55-.23.42-.18.65-.13,1.22-.16.9-.16,1.43-.26,2.17-.1.21.03.65-.09,1.09-1.71,17.52-2.99,34.63-5,51.66-1.71,14.49.07,27.63,7.95,40.53,19,31.08,36.94,62.8,55.51,94.14,7.63,12.88,15.77,25.46,23.79,38.1.65,1.02,2.21,1.45,3.36,2.16.02,0,.03.04-.44.18-.03,1.35.21,2.68.87,3.75,8.82,14.26,17.62,28.53,26.59,42.7,4.45,7.04,4.72,11.64-1.14,17.67-5.75,5.92-12.2,11.2-18.63,16.41-3.85,3.12-8.24,5.58-12.39,8.33M433.71,457.28c-1.29-1.82-2.27-4.77-3.94-5.22-3.39-.93-6.37,0-8.56,3.94-2.19,3.95-.72,6.12,1.57,8.73,2.1,2.39,3.99,1.58,6.58.51,3.55-1.46,3.81-4.21,4.34-7.96h0Z"/>
  <path class="cls-16" d="M415.14,529.44c2.24,6.14,4.49,12.28,6.72,18.42,2.93,8.06,5.86,16.13,8.84,24.71.1.69.18.86.29,1.01,2.2,5.83,4.4,11.65,6.79,18.18,5.1,15.51,9.92,30.35,14.96,45.12,9.12,26.69,18.37,53.34,27.57,80,1.83,4.97,3.52,10.01,5.6,14.87.54,1.25,2.2,2.44,3.59,2.85,10.84,3.16,21.76,4.28,32.85.96,2.41-.72,5.1-.51,7.79-1.12-.94.76-1.8,2.49-3.13,2.98-13.43,4.96-26.8,4.08-39.92-1.16-1.58-.63-2.97-2.52-3.76-4.16-2.08-4.32-3.78-8.82-5.55-13.07-28.67,8.4-57.12,15.63-86.61,18.23-24.72,2.18-49.25.83-73.7-2.7-30.79-4.45-61.63-8.67-92.3-13.87-43.6-7.39-87.17-15.23-129.02-30.06-17.37-6.16-34.26-13.64-51.41-20.42-3.27-1.29-5.05-3.16-3.97-6.75,3.82-12.69,6.31-26.02,11.89-37.88,7.34-15.61,22.05-22.93,38.41-26.75,3.24-.76,6.54-1.24,10.23-1.45.42,1.1.43,1.8.11,2.68-4.4,1.04-8.51,1.75-12.53,2.81-14.6,3.84-27.34,10.95-33.61,25.16-4.99,11.31-7.82,23.57-11.62,35.41-.99,3.07.99,4.06,3.29,5.06,26.33,11.4,53.18,21.27,80.97,28.58,38.52,10.13,77.61,17.28,116.95,23.21,28.47,4.29,56.93,8.75,85.48,12.41,36.89,4.73,73.44,1.96,109.5-7.11,12.05-3.03,24.06-6.19,36.71-9.46-3.9-10.31-7.73-19.5-10.87-28.91-10.45-31.39-20.62-62.87-31-94.28-.52-1.57-1.96-2.83-2.97-4.56.02-1,.05-1.66.14-2.73-.52-2.31-1.05-4.22-1.7-6.1-5.98-17.23-11.99-34.46-17.56-51.72.99-.05,1.56-.07,2.12-.09l.06.44c.17.7.26.98.35,1.25h.02Z"/>
  <path class="cls-9" d="M101.76,599.9c-.01-.7-.02-1.4-.03-2.46,5.62-.81,11.24-1.27,17.03-1.74-1.07-8.72-2.43-17.34-3.14-26.02-2.08-25.39-4.12-50.79-5.75-76.21-2.12-33.06-4.52-66.13-5.52-99.24-.78-25.78.17-51.62.76-77.43.56-24.14.35-48.4,2.89-72.35,2.79-26.37,6.06-52.92,17.46-77.56,12.76-27.58,30.06-51.78,52.44-72.3,17.6-16.14,38.11-26.94,61.87-30.03,7.19-.94,14.87,1.57,22.29,2.77,4.09.66,8.1,1.87,12.51,3.35-.09,1.07-.55,1.63-1.01,2.18-9.08-1.74-18.12-4.41-27.27-4.91-7.11-.39-14.7.93-21.49,3.22-23.74,8.02-42.85,22.66-59.45,41.48-16.75,18.98-30.33,39.79-39.55,63.14-4.71,11.94-7.28,24.89-9.5,37.61-2.96,17.01-4.64,34.24-7.02,52.08-.12,1.26-.09,1.81-.06,2.36-.08,1.34-.16,2.68-.3,4.89-.07,7.93-.07,14.99-.12,22.52-.36,15.6-1.16,30.75-.9,45.88.69,40.75,1.38,81.5,2.99,122.22.86,21.58,3.88,43.06,5.48,64.62,1.45,19.53,2.3,39.11,3.41,58.93.37.79.75,1.32,1.31,2.25-.13,5.9,2.55,7.59,7.72,6.69,2.25-.39,4.62-.05,7.1.15.72.04,1.28-.12,2.26-.35,7.48-.64,14.54-1.21,21.77-1.59.71.01,1.26-.16,2.2-.44,2.19-.38,3.99-.64,5.78-.94,21.54-3.63,41.93-9.81,57.9-25.84.72.74,1.29,1.24,1.76,2.07-3.72,3.49-7.02,7.15-11.02,9.71-14.51,9.27-30.36,15.53-47.51,17.05-22.38,1.99-44.85,2.87-67.28,4.22v.02h0Z"/>
  <path class="cls-9" d="M536.64,644.73c-1.14-.71-2.7-1.14-3.35-2.16-8.02-12.64-16.16-25.22-23.79-38.1-18.58-31.34-36.51-63.07-55.51-94.14-7.88-12.89-9.67-26.03-7.95-40.53,2.01-17.02,3.29-34.14,5.1-51.74.35-.79.31-1.01.09-1.21,0-.53,0-1.06.21-2.12.26-.76.25-.98.19-1.21-.9-5.34-1.81-10.69-2.42-16.4.88-1.35,1.48-2.33,1.99-3.7-.03-1.17.02-1.95.22-3.03.04-2.04-.08-3.79-.3-5.94-.07-3.13-.03-5.86.61-8.62,1-.07,1.39-.11,1.78.32-.4,21.47-.78,42.48-1.32,63.86-1.5,15.93-2.91,31.48-4.11,47.04-.18,2.39-.02,5.19,1.07,7.22,7.91,14.82,16.09,29.5,24.22,44.2.49.88,1.27,1.6,2.25,2.8,0-2.35.07-4.01-.01-5.67-1.21-24.09-3.19-48.16-3.48-72.26-.3-25.27.73-50.57,1.72-75.84.95-24.26,2.59-48.49,4.08-73.12.66-6.99,1.36-13.59,1.61-20.21.13-3.48-.52-6.98-.81-10.65.01-.17.01-.53.41-.65.81-.96,1.58-1.81,1.58-2.65-.03-11.6-.16-23.19-.27-34.79-2.22-13.91-3.97-27.92-6.76-41.71-4.62-22.82-10.42-45.48-22.19-65.76-7.55-13-17.08-24.84-25.65-37.81.74-.89,1.39-1.17,2.05-1.46,14.04,14.53,24.88,31.29,32.75,49.75,12.08,28.36,18.37,58.35,22.45,88.76,3.05,22.77.87,45.62-.86,68.35-4.3,56.5-7.7,113.04-6.45,169.72.52,23.8,2.37,47.57,3.69,71.35.07,1.25.57,2.59,1.21,3.67,7.23,12.15,14.76,24.14,21.7,36.46,2.66,4.72,5.68,7.91,11.58,8.99-1.35,1.01-3.03,1.11-5.24,1.24,1.19,2.05,2.18,3.88,3.28,5.66,7.78,12.55,15.61,25.06,23.32,37.65.78,1.27.89,2.95,1.31,4.43M476.27,543.27s-.08.04,0,0Z"/>
  <path class="cls-19" d="M536.65,644.73c-.44-1.49-.55-3.17-1.32-4.44-7.71-12.59-15.54-25.1-23.32-37.65-1.1-1.77-2.1-3.61-3.28-5.66,2.21-.13,3.88-.23,5.52-.91-.04-.58.02-.45-.38-.1,1.66,1.48,3.62,2.89,5.8,3.67,14.83,5.26,26.75,14.06,34.43,28.05,6.87,12.52,9.38,26.25,10.82,40.23.68,6.61.86,13.28,1.27,19.92-2.06-1.25-3.05-2.7-3.98-4.2-7.47-12.02-14.91-24.06-22.44-36.03-.72-1.14-2.04-1.91-3.08-2.85,0,0-.01-.03-.03-.04h0Z"/>
  <path class="cls-9" d="M536.22,644.91c1.51.8,2.83,1.56,3.55,2.71,7.53,11.98,14.97,24.02,22.44,36.03.93,1.5,1.92,2.95,3.98,4.2-.41-6.64-.59-13.31-1.27-19.92-1.44-13.97-3.96-27.71-10.82-40.23-7.67-13.98-19.59-22.79-34.43-28.05-2.19-.77-4.14-2.19-5.8-3.63,1.01-.43,1.67-.76,2.21-.62,26.43,6.98,42.35,24.47,48.29,50.58,2.9,12.74,3.34,26.03,4.87,39.08.46,3.94,1.41,7.93,1.12,11.82-.28,3.85-.94,8.2-3,11.3-7.96,12.01-19.45,19.9-32.51,25.59-.71.31-1.65.07-2.9.05,3.73-2.79,8.12-5.25,11.97-8.37,6.43-5.21,12.88-10.49,18.63-16.41,5.86-6.03,5.59-10.63,1.14-17.67-8.97-14.17-17.77-28.44-26.59-42.7-.66-1.07-.9-2.4-.87-3.75M565.96,689.13l.33.14s-.09-.38-.33-.14Z"/>
  <path class="cls-16" d="M427.77,98.38c-.54.6-1.19.89-2.06,1.47-8.53-6.83-16.41-14.58-25.3-20.93-9.16-6.54-18.98-12.34-29.07-17.34-20.56-10.18-41.32-7.21-61.86.73-6.28,2.43-12.62,4.71-19.11,6.72,30.52-18.82,61.72-24.22,94.24-4.64,15.76,9.49,30.41,20.25,43.17,33.99,0,0-.01,0-.01,0Z"/>
  <path class="cls-10" d="M273.81,73.11c.18-.8.64-1.36,1.02-2.18,3.4-.5,6.26,4.29,10.53,1.31.42.55.43.82.44,1.09-3.9,5.13-7.81,1.04-11.99-.22h0Z"/>
  <path class="cls-16" d="M286.15,73.21c-.37-.15-.38-.42-.42-1.09,1.2-1.35,2.43-2.29,4.01-3.35-.85,1.36-2.04,2.84-3.59,4.44Z"/>
  <path class="cls-25" d="M478.73,282.99v.96c-1.49,12.84-4.18,24.74-9.97,36.13-3.46,5.48-6.73,10.67-10.35,15.83-.84-.44-1.33-.86-1.78-1.61,16.58-22.43,21.13-47.83,20.62-75.09-.93-6.16-1.36-12.05-3.05-17.56-2.74-8.94-10.21-10.33-16.02-2.95-5.99,7.61-9.79,15.95-9.47,26.34.47,15.55-.48,31.15-.9,47.17-.13,1.77-.13,3.11-.27,4.43-.58,5.59-1.43,11.17-1.68,16.78-.07,1.67,1.27,3.59,2.46,4.97.28.32,2.59-1.11,3.96-1.75,1.45-.67,2.9-1.36,4.62-1.72-2.33,3.49-4.93,6.66-7.87,9.84-.99,0-1.65,0-2.47-.28-.57-1.48-.97-2.68-1.49-4.27-1.68-5.69-3.25-11-4.47-16.37,1.3-.96,2.25-1.87,3.16-3.22.23-3.24.48-6.05.85-9.3.44-11.15.76-21.86,1.19-33.03-.04-4.82-.17-9.19-.22-14.01.09-2.44.39-4.5,0-6.42-.3-1.51-1.12-3.63-2.28-4.13-13.07-5.6-24.13-13.91-33.85-24.65-3.97-5.35-7.79-10.38-11.68-15.75-3.6-5.81-7.13-11.27-10.78-17.07-2.48-4.14-4.83-7.94-7.22-12.09-13.91-24.39-35.74-38.9-60.33-50.66-1.42-.47-2.56-.72-3.72-1.16-.32-.4-.63-.6-1.28-.91-2.45-.74-4.55-1.36-6.96-2.21-2.17-.78-4.05-1.34-6.08-1.96-11.08,24-26.07,45.22-43.04,65.14-10.77,12.65-21.45,25.37-32.44,38.24-7.65,7.48-15.03,14.77-22.42,22.07.06.32.13.63.19.95,14.34-5.66,28.68-11.31,43.41-16.93,4.57,2.39,8.76,4.73,12.45,6.8-.16-1.13-.49-3.5-.51-5.71,1.16,2.99,2.55,5.78,2.68,8.64.1,2.22-.15,5.45-3.97,5.11,0-.25,0-.75.12-1.13-1.37-8.98-6.78-12.48-14.66-9.52-14.61,5.48-29.42,10.59-43.58,17.08-7.52,3.45-13.85,9.47-20.7,14.34.02,0,.08.14.52.05,1.59-.36,2.75-.64,4.17-.77.53.44.8.73.79,1.23-5.31,2.82-10.34,5.42-15.57,7.9-.14-.73-.07-1.33.12-2.02-.03-.1-.18-.11-.67-.1-1.75.72-3.16,1.41-4.81,2.2-.44.37-.63.64-.8.93.03.01.02-.04-.31-.05-1.43.66-2.53,1.33-4,2.05-3.31,1.13-6.26,2.21-8.93,3.19-3.39,27.86,4.01,53.64,14.26,79.22.34,1.06.66,1.81.96,2.94,7.02,14.29,13.75,28.38,21.2,42.08,14.9,27.39,34.1,51.52,56.87,73.22,4.37,3.99,8.6,7.7,12.98,11.71,4.78,3.87,9.42,7.44,14.35,11.3,2.26,1.55,4.21,2.79,6.28,4.19,7.98,3.46,15.58,8.08,23.78,9.8,15.31,3.21,26.44-5.78,37.06-15.72,2.45-1.93,4.59-3.76,7.03-5.71,1.06-.81,1.82-1.51,2.91-2.3,10.88-9.66,21.43-19.23,32.28-28.93,3.87-3.8,7.44-7.47,11.37-11.15.91-.9,1.47-1.79,2.1-2.93.11-.44.14-.61.45-.96.88-1.04,1.49-1.91,2.31-3.03,4.19-7.27,8.28-14.24,12.07-21.36,1.09-2.06,2.15-4.72,1.78-6.86-1.26-7.3-3.15-14.49-4.77-22.12-.11-2.81-.26-5.22-.46-7.62-.04.01-.1.08-.1.08.87,1.15,2.24,2.19,2.53,3.47,2.06,8.9,4.19,17.8,5.63,26.8.44,2.77-.67,6.14-1.96,8.79-5.31,10.86-11.58,21.29-16.31,32.39-4.56,10.71-6.74,22.33-.77,33.24,3.2,5.83,8.35,10.6,12.56,16.75-.19,1.33-.32,1.76-.75,2.03-8.52-7.43-16.9-15.19-17.47-26.69-.45-9.09,1.95-18.33,3.11-27.65.08-.47.1-.79.21-1.18-.02-.08-.14-.08-.52.07-.71.8-1.17,1.45-1.77,2.4-1.45,2.93-3.83,5.54-3.86,8.17-.26,21.43-.78,42.91.24,64.3.62,13.02,2.66,26.44,14.7,35.12-.56.9-.82,1.58-1.42,2.13-8.18-6.07-13.83-13.44-14.86-23.56-1.38-13.53-2.58-27.08-3.78-41.08.65-12.35,1.22-24.23,1.82-36.86-1.21,1.01-1.93,1.6-2.63,2.21-15.96,13.87-31.66,28.05-47.96,41.52-15.76,13.02-32.02,14.37-49.38,3.38-12.16-7.7-23.26-17.12-34.64-26.03-4.22-3.3-7.88-7.31-11.98-11.18.89,16.17,1.74,31.75,2.47,47.77-.29,5.23-.27,10.04-.66,14.8-.74,9.01-3.1,17.5-9.02,24.65-.57-.5-1.14-1-1.76-2.07,5.85-9.14,7.55-18.94,7.86-29.01.56-18.14.51-36.28-2.8-54.21-.6-3.24-1.29-7.08-3.37-9.33-29.62-32.01-52.27-68.29-67.93-108.99-.63-1.63-2.72-3.62-4.32-3.81-7.44-.91-13.01-4.77-17.81-10.11-14.69-16.33-20.19-36.63-24.7-57.79-.11-7.16-.25-13.88-.38-20.59,1.76-6.93,2.95-14.07,5.46-20.72,2.09-5.53,5.54-6.56,11.64-5.26.91,0,1.12-.03,1.33-.05,2.77,2.8,5.77,5.41,8.24,8.46,1.72,2.12,2.7,4.83,4.31,7.73.54.93.78,1.4,1.02,1.87.59,2.04.91,4.22,1.82,6.1,1.95,4.03,3.53,7.84-1.18,11.06-.11-1.41-.16-2.77-.18-4.51-3.45-8.45-6.43-16.76-10.57-24.46-3.26-6.07-10.01-5.63-13.5.38-1.47,2.53-2.59,5.44-3.14,8.32-5.51,28.86.58,55.48,16.38,79.93,3.01,4.66,7.08,8.85,11.4,12.35,2.93,2.37,7.15,3.16,10.79,4.66-6.84-22.05-12.25-43.2-9.88-65.95-.11-2.42,2.53-5.67-2.17-5.86.2-.65.39-1.31.59-1.96,11.31-1.98,20.6-8.24,29.88-14.38,27.56-18.22,49.62-42.16,70.28-67.6,13.85-17.06,28.64-33.39,39.88-52.43,4.91-8.31,9.7-16.7,15.12-25.3,1-.28,1.43-.32,1.86-.35,36.26,10.62,66.01,29.71,84.65,63.84,5.64,10.33,12.51,20.01,18.94,29.91,1.62,2.5,3.68,4.71,5.98,7.52,5.3,4.96,10.16,9.45,15.02,13.94,6.63,4.2,13.26,8.39,19.94,12.62,3.13-5.42,5.38-9.79,8.11-13.85,1.44-2.14,3.52-3.99,5.63-5.53,5.47-3.99,11.44-2.68,14.71,3.21,1.52,2.73,2.56,5.73,3.87,9.39.04,12.94.03,25.08.03,37.23M175.01,274.9c.12-.11.23-.21.35-.32-.12.02-.23.04-.35.32M177.13,273.25s.12-.07,0,0Z"/>
  <path class="cls-10" d="M151.49,242.49c7.14-14.27,13.62-28.93,21.56-42.74,12.84-22.32,28.74-42.48,47.08-60.59,10.9-10.76,22.07-21.39,36.18-27.98,4.38-2.04,9.3-2.91,13.97-4.32.13.43.26.86.4,1.3-4.98,1.94-10.2,3.42-14.89,5.9-18.3,9.66-32.4,24.39-45.98,39.52-23.91,26.64-41.52,57.37-57.22,89.68-.64-.16-.87-.47-1.1-.77Z"/>
  <path class="cls-2" d="M155.64,268.67c.9-1.33,1.61-2.86,2.74-3.95,13.1-12.5,23.32-27.23,33.54-42.06,9.8-14.21,20.35-27.96,31.16-41.42,11.98-14.91,24.64-29.27,36.99-43.87.71-.83,1.34-1.73,2-2.6.43.38.86.76,1.29,1.15-4.23,5.41-8.31,10.95-12.72,16.22-14.18,16.98-28.89,33.53-42.56,50.91-8.82,11.21-15.59,24.05-24.38,35.29-8.35,10.69-18.14,20.25-27.66,30.35-.36.04-.41-.02-.41-.02h.01Z"/>
  <path class="cls-10" d="M353.73,114.74c18.56,8.57,32.28,22.35,41.41,40.34,5.93,11.69,10.55,24.06,15.45,36.25,5.69,14.17,12.48,27.61,23.24,38.7,1.12,1.16,2.07,2.49,2.53,4.5-.99-.59-1.99-1.18-3.43-2.21-3.36-3.83-6.27-7.21-9.19-10.59-10.11-15.2-16.28-32.22-22.86-49.07-4.86-12.44-10.34-24.81-19.89-34.24-8.06-7.96-17.72-14.3-26.97-21.87-.29-.95-.29-1.38-.29-1.82h0Z"/>
  <path class="cls-2" d="M406.13,110.34c7.14,9.08,15.16,17.6,21.26,27.34,15.22,24.28,23.35,51.3,28.01,79.41.56,3.37.53,6.85.19,10.43-6.51-43.06-20.22-82.92-49.83-116.37.04-.47.36-.8.36-.8h.01Z"/>
  <path class="cls-2" d="M130.79,246.24c-.12.43-.33.45-.86.46,2.04-40.74,17.27-75.94,45.48-105.79.39-.05.6.19.6.19-4.42,5.97-8.93,11.87-13.23,17.91-17.31,24.3-27.61,51.33-31.22,80.92-.24,1.97-.57,3.93-.76,6.3h-.01Z"/>
  <path class="cls-2" d="M175.7,140.74c8.23-7.88,16.14-16.17,25-23.27,14.45-11.58,30.63-20.39,48.05-26.8,2.31-.85,4.79-1.26,7.59-1.63.39.24.38.65.38.65-22.5,7.7-42.77,19.41-61.21,34.29-6.56,5.3-12.6,11.24-19.18,17-.31.12-.51-.13-.62-.24h-.01Z"/>
  <path class="cls-5" d="M423.49,221.99c3.17,3.13,6.08,6.51,9.15,10.16.1,2.42.25,4.54-2.94,4.79-.94.07-1.77,1.61-2.95,2.73-5.16-4.25-10.02-8.74-15.04-13.53,3.74-1.5,7.63-2.69,11.77-4.14h0Z"/>
  <path class="cls-28" d="M144.89,277.75c.05,1.35.09,2.7.18,4.47-.06.88-.16,1.35-.25,2.17-.19,1.01-.38,1.67-.58,2.32,4.7.18,2.06,3.44,1.67,5.82-4.11.29-7.59.26-11.26,0-.5-.73-.81-1.23-1.2-2.07-1.46-3.12-2.84-5.91-3.82-8.67,3.18-.36,6.03-.51,8.73-1.22,2.27-.6,4.36-1.85,6.54-2.81h0Z"/>
  <path class="cls-10" d="M301.75,124.28c-.32.45-.75.48-1.5.53-4.05-12.48-7.75-24.99-11.55-37.46-.88-2.9-2.12-5.69-2.36-8.82,8.62,13.91,13.19,29.2,15.41,45.75Z"/>
  <path class="cls-2" d="M401.5,106.99c-9.74-6.87-19.37-13.9-29.24-20.57-8.19-5.53-17.39-8.05-27.31-7.9-1.06.02-2.12-.34-3.8-.63,16.37-5.95,46.4,13.43,60.69,28.32-.04.47-.34.78-.34.78Z"/>
  <path class="cls-13" d="M112.11,272.7c.48,6.69.62,13.41.38,20.61-1.47.81-2.56,1.15-3.66,1.48,0-7.06.01-14.12.11-21.65,1-.45,1.92-.43,3.17-.44Z"/>
  <path class="cls-2" d="M353.49,114.49c.24.69.23,1.12.24,1.89-11-3.23-22.01-6.78-32.37-10.12,10.69,0,21.58,2.68,32.12,8.24h.01Z"/>
  <path class="cls-2" d="M479.13,282.86c-.39-12.02-.39-24.17-.38-36.74.38-.45.76-.47,1.41-.6.38,11.5.51,23.09.54,34.69,0,.84-.77,1.68-1.58,2.65h.01Z"/>
  <path class="cls-2" d="M151.24,242.74c.48.06.71.36,1.18.83-2.3,7-4.85,13.84-7.68,20.91-.53-.24-.77-.72-1.02-1.46,2.42-6.86,4.84-13.44,7.52-20.28h0Z"/>
  <path class="cls-20" d="M257.17,89.69c-.46,0-.45-.42-.44-.62,4.58-1.72,9.08-2.08,13.39.63h-12.95Z"/>
  <path class="cls-13" d="M109.45,267.74c-.26-.44-.29-.99-.18-1.79.23.4.32,1.04.18,1.79Z"/>
  <path class="cls-10" d="M438.86,235.6c.4.38.8.75,1.21,1.13-.49-.08-.97-.17-1.44-.58.02-.33.23-.55.23-.55Z"/>
  <path class="cls-2" d="M155.72,268.76c-.46.35-.94.66-1.71.98-.29.01-.26.03-.26.03.43-.37.86-.73,1.59-1.11.29,0,.35.06.38.09h0Z"/>
  <path class="cls-2" d="M403.5,108.99c-.3-.14-.56-.33-.73-.96.03-.36.33-.66.33-.66.32.1.59.29.75.93-.05.37-.35.69-.35.69h0Z"/>
  <path class="cls-10" d="M438.54,235.93c-.3-.12-.48-.34-.67-.57.25-.04.49-.09.86.05.13.19-.08.41-.19.51h0Z"/>
  <path class="cls-2" d="M405.11,109.36c.32.11.57.3.89.78.13.2-.19.53-.36.69-.45,0-.69-.2-.87-.8.03-.36.34-.67.34-.67h0Z"/>
  <path class="cls-2" d="M403.96,108.52c.43,0,.68.2,1.01.64.14.19-.17.51-.33.66-.44,0-.68-.2-1.01-.64-.13-.19.17-.51.33-.66Z"/>
  <path class="cls-2" d="M402.64,107.83c-.43,0-.68-.2-1.01-.64-.13-.2.17-.5.32-.66.43,0,.67.21,1.01.65.14.19-.17.5-.32.65Z"/>
  <path class="cls-2" d="M153.71,269.74l-.2.4s.02-.27.13-.31c.11-.05.08-.07.07-.09Z"/>
  <path class="cls-27" d="M390.68,462.09c-1.13,9.17-3.53,18.41-3.08,27.5.57,11.5,8.95,19.26,17.63,26.95,2.22,2.22,3.97,4.01,5.71,5.81.17.28.35.56.35,1.39-.04,1.04.09,1.54.24,2.32.23.79.44,1.31.65,1.82,6,17.23,12,34.46,17.99,51.69.65,1.87,1.18,3.79,1.34,5.98-1.87-.1-3.31-.5-5.01-1.14-9-4.77-17.75-9.29-26.5-13.81-12.33-8.46-14.36-21.87-14.99-34.89-1.03-21.39-.5-42.86-.24-64.3.03-2.64,2.42-5.24,4.35-8.37.95-.65,1.26-.8,1.57-.95M401.21,530.78c-.17-2.65-.24-5.31-.53-7.95-.28-2.56-.77-5.1-1.17-7.64-.47.07-.93.14-1.4.21,1.37,17.2,2.75,34.4,4.12,51.6.47-.04.94-.08,1.4-.11-.74-11.73-1.49-23.47-2.43-36.1h.01Z"/>
  <path class="cls-10" d="M404.23,392.51c-.09.3-.03.24-.37.14-.86-.07-1.38-.05-2.07-.32-4.87-3.84-9.56-7.38-14.46-11.2-3.3-5.26-6.66-10.1-9.3-15.3-.71-1.4.22-4.5,1.47-5.71.83-.8,3.78-.07,5.42.72,5.95,2.88,11.74,6.08,17.76,9.4.63.28,1.09.32,1.54.36-.31-.47-.63-.95-1.14-1.68-4.64-5.43-9.35-10.39-13.43-15.83-2.34-3.11-4.23-6.83-5.22-10.57-.64-2.4.1-5.77,1.49-7.85.66-.98,4.3.03,6.79.15.01-.22-.06-1.06.14-1.81.53-1.99.85-5.38,1.85-5.61,2.08-.48,4.65.48,6.84,1.32,1.49.57,2.7,1.89,3.99,2.93,8.03,6.46,16.04,12.96,24.09,19.4.89.72,2,1.16,3.83,2.2-.88-4.75-1.92-8.46-2.2-12.22-.6-8.15-2.9-16.62,3.45-23.27.35.99.5,1.38.55,2.07-3.74,8.89-2.05,17.47-.09,26.44.37,2.12.73,3.85,1.06,5.98,1.85,4.77,3.72,9.15,5.58,13.91,2.65,8.99,5.3,17.6,8.02,26.19.18.58.96.98,1.46,1.46-.59.98-1.18,1.96-2.1,2.94-3.95-10.64-7.58-21.28-11.33-32.38-.13-.46-.3-.71-.31-1.09-.84-1.65-1.66-2.92-2.61-4.49-1.34-1.19-2.56-2.08-3.96-3.22-9.49-7.7-18.76-15.2-28.13-22.57-1.89-1.49-4.15-2.51-6.57-3.94-1.49,5.36-.58,8.93,2.87,11.8,8.15,6.79,16.28,13.58,24.61,20.63,2.94,2.98,5.69,5.7,8.44,8.42,4.15,14.51,8.3,29.02,12.45,43.52-.68.2-1.35.39-2.03.59-2.2-7.02-5.39-13.9-6.41-21.08-2.27-16.04-10.11-27.89-23.31-36.96-6.41-4.41-11.88-10.17-17.88-15.19-2.11-1.77-4.53-3.16-6.81-4.72-.48.2-.97.41-1.45.61.19,2.11-.2,4.52.69,6.28,2.24,4.42,4.53,9.01,7.77,12.68,6.66,7.56,13.96,14.56,20.95,21.83,1.02,1.06,2.12,2.22,2.64,3.55,4.92,12.53,9.74,25.11,14.54,37.69.2.53.03,1.21-.91,2.31-.95-1.51-2.14-2.93-2.8-4.56-4.31-10.8-8.47-21.66-12.78-32.45-.58-1.44-1.49-3.13-2.74-3.85-9.79-5.66-19.68-11.13-29.58-16.59-.94-.52-2.13-.59-3.62-.99-.76,5.52,1.47,9.6,4.9,12.78,4.38,4.06,9.29,7.55,14.41,11.68,1.64,1.58,2.83,2.75,4.03,3.93.03.42.05.85-.01,1.57v-.03h-.01Z"/>
  <path class="cls-22" d="M480.66,716.73c-9.54-26.51-18.8-53.15-27.92-79.84-5.04-14.77-9.86-29.61-14.79-44.78,4.71.26,7.39,4.39,8.9,9.87,2.71,9.81,6.46,19.33,9.54,29.04,3.03,9.54,5.74,19.19,8.71,28.75.68,2.18,1.94,4.17,2.83,6.29,5.41,12.94,10.83,25.87,16.14,38.85,1.86,4.55.11,8.34-3.42,11.82h0Z"/>
  <path class="cls-3" d="M433.71,457.69c-.53,3.34-.79,6.09-4.34,7.55-2.59,1.07-4.49,1.88-6.58-.51-2.29-2.62-3.76-4.78-1.57-8.73s5.17-4.87,8.56-3.94c1.67.46,2.65,3.4,3.93,5.64h0Z"/>
  <path class="cls-22" d="M437.54,363.64s.18.25.13.39c-1.59,1.99-3.14,3.84-5.09,5.77-3.15-2.64-5.9-5.36-8.69-8.7,1.49-1.74,2.99-2.91,4.57-3.96.83-.55,1.79-.91,2.69-1.35,1.22.89,2.44,1.78,3.6,3.34-1.43,3.67.01,4.59,2.79,4.51h0Z"/>
  <path class="cls-16" d="M411.44,522.44c-2.24-1.89-3.99-3.68-5.9-5.74-.03-.69.1-1.12.45-2.19,2.46,2.03,7.35,2.94,5.45,7.92h0Z"/>
  <path class="cls-22" d="M404.54,390.74c-1.5-.98-2.69-2.15-4.03-3.61,2.14-.01,5.4-.91,4.03,3.61Z"/>
  <path class="cls-25" d="M412.61,527.84c-.63-.48-.84-1-.67-1.8.92-.32,1.45-.35,1.99-.38.27.5.54,1,.81,1.79-.57.31-1.14.34-2.13.38h0Z"/>
  <path class="cls-16" d="M413.9,525.33c-.51.37-1.04.4-1.98.44-.53-.49-.66-.99-.71-1.88.18-.65.27-.91.91-.82.75.47.95.59,1.16.7.2.41.39.81.62,1.56h0Z"/>
  <path class="cls-23" d="M451.5,413.66c.18.08.18.3.08.69-.27-.04-.32-.27-.08-.69Z"/>
  <path class="cls-25" d="M413.28,523.55c-.21.1-.41,0-.74-.45.16-.14.46.05.74.45Z"/>
  <path class="cls-23" d="M451.12,417.05c.32,0,.36.22.13.56-.1.08-.23-.36-.13-.56Z"/>
  <path class="cls-25" d="M431.05,573.43c-.16,0-.24-.17-.32-.49.2-.06.33.1.32.49Z"/>
  <path class="cls-25" d="M415.31,529.25c-.26-.08-.35-.36-.51-1.06.18,0,.43.44.51,1.06Z"/>
  <path class="cls-28" d="M227.57,568.91c6.02-7.48,8.38-15.97,9.12-24.98.39-4.77.37-9.57,1.01-14.66,4.63,1.67,8.85,3.53,12.92,5.65,12.44,6.46,25.64,8.96,39.63,8.98,13.02.02,25.65-2.02,37.36-7.2,14.88-6.58,30.15-12.66,42.75-23.58,2.47-2.14,6.09-2.94,9.19-4.35,1.28,13.54,2.49,27.09,3.87,40.63,1.03,10.12,6.67,17.5,15.04,23.84,9.76,4.95,19.01,9.5,28.59,14.24,1.78.54,3.23.9,4.68,1.25,1.01,1.4,2.45,2.66,2.97,4.23,10.38,31.41,20.55,62.89,31,94.28,3.13,9.41,6.97,18.6,10.87,28.91-12.65,3.26-24.66,6.43-36.71,9.46-36.06,9.07-72.6,11.84-109.5,7.11-28.56-3.66-57.01-8.12-85.48-12.41-39.34-5.93-78.43-13.08-116.95-23.21-27.79-7.31-54.64-17.18-80.97-28.58-2.31-1-4.28-1.99-3.29-5.06,3.8-11.84,6.63-24.1,11.62-35.41,6.27-14.21,19.01-21.32,33.61-25.16,4.02-1.06,8.13-1.76,12.53-2.81,22.77-1.53,45.24-2.41,67.62-4.4,17.15-1.52,33.01-7.79,47.51-17.05,4-2.56,7.3-6.22,11.02-9.71M296.82,687.46l-.61-.22c.18.17.35.34.69,1.19,6.67,6.7,16.25,5.36,19.89-3.52-6.38,6.59-13.04,6.82-19.96,2.55M434.95,644.48c-.36-5.56-4.82-4.23-7.27-3.31-7.37,2.79-14.58,6.11-21.57,9.77-10.64,5.57-21.07,11.52-31.52,17.45-5.9,3.35-11.74,6.81-17.41,10.52-2.86,1.87-3.43,4.98-1.63,7.91,2.05,3.32,4.31.51,7.11-.36,22.36-12.31,44.74-24.57,67.04-36.99,1.85-1.03,3.16-3.04,5.25-5M256.84,676.44c2.3,1.45,4.6,2.9,6.9,4.35.26-.37.52-.73.79-1.1-.4-.69-1.16-1.38-1.15-2.06.15-8.11-4.94-12-11.56-14.88-8.08-3.51-16.07-7.21-24.09-10.85-2.22-1.01-4.33-2.31-6.63-3.08-4.98-1.66-10.67-2.05-14.94-4.76-10.36-6.57-21.21-11.94-32.87-15.43-4.3-1.29-9.21-.56-14.43-.86-.66-.09-1.32-.19-1.98-.28,1.6,2.08,3.44,3.44,5.47,4.41,30.17,14.41,60.36,28.77,90.57,43.09,1.13.54,2.53.52,3.92,1.45M343.53,599.14c2.01-5.28,4.09-10.54,6.01-15.86,1.91-5.27,3.67-10.59,5.49-15.89-.48-.16-.96-.31-1.44-.47-10.27,26.39-20.54,52.79-30.81,79.18.6.24,1.19.48,1.79.72,6.2-15.66,12.41-31.33,18.96-47.69h0Z"/>
  <path class="cls-25" d="M431.73,588.39c-1.45-.02-2.89-.38-4.68-1.25-.32-1.17-.31-1.83-.3-2.49,1.44.39,2.89.79,4.7,1.3.33.78.31,1.44.28,2.44h0Z"/>
  <path class="cls-7" d="M108.79,295.26c1.13-.8,2.23-1.13,3.66-1.51,4.89,20.67,10.39,40.98,25.08,57.31,4.8,5.34,10.37,9.19,17.81,10.11,1.61.2,3.69,2.18,4.32,3.81,15.66,40.7,38.31,76.98,67.93,108.99,2.08,2.24,2.77,6.09,3.37,9.33,3.31,17.93,3.37,36.07,2.8,54.21-.31,10.08-2.01,19.87-8.01,28.77-15.92,16.6-36.31,22.78-57.85,26.41-1.79.3-3.59.56-5.97.83-1.12.11-1.65.24-2.18.36-7.06.57-14.12,1.14-21.79,1.66-1.15.06-1.69.16-2.23.27-2.32,0-4.69-.34-6.94.05-5.17.9-7.85-.79-7.59-6.94-.52-1.2-.98-1.73-1.44-2.27-1.11-19.56-1.96-39.13-3.41-58.66-1.6-21.56-4.62-43.04-5.48-64.62-1.61-40.72-2.3-81.47-2.99-122.22-.26-15.13.55-30.28.9-45.88M153.94,386.65c.2,1.98.53,3.96.59,5.95.72,23.11,1.19,46.23,2.15,69.33,1.07,25.61,4.33,50.98,10.11,75.98,1.22,5.26,2.51,10.51,3.76,15.77.94-1.79.87-3.38.5-4.9-8.71-35.19-11.87-71.06-13.27-107.15-.72-18.61-1.47-37.22-2.12-56.71-.7-7.28-1.4-14.56-2.1-21.84l-1.66.13c.69,7.54,1.39,15.08,2.05,23.45M132.68,442.33c-2.06-32.7-4.12-65.39-6.22-98.08-.07-1.13-.6-2.24-.92-3.36l-1.26.19c.56,17.46.59,34.95,1.8,52.37,2.14,31.02,5.03,61.99,7.53,92.98,2.14,26.52,4.14,53.05,6.31,79.56.39,4.74,1.29,9.43,1.96,14.15.41-.06.83-.13,1.24-.19-1.22-13.71-2.6-27.42-3.61-41.14-2.36-31.84-4.54-63.69-6.83-96.47M200.5,526.66c.81,13.45,1.63,26.9,2.44,40.36.41-.03.83-.07,1.24-.1-.38-43.64-5.23-86.88-11.91-129.96-.48.69-.54,1.35-.47,2,1.3,12.56,2.67,25.1,3.9,37.67,1.6,16.37,3.09,32.74,4.8,50.03h0Z"/>
  <path class="cls-25" d="M135.9,596c.38-.3.92-.41,1.65-.4-.37.28-.93.44-1.65.4Z"/>
  <path class="cls-25" d="M159.93,594.05c.36-.31.9-.43,1.62-.45-.36.28-.9.46-1.62.45Z"/>
  <path class="cls-25" d="M119.77,586.91c.46.27.91.8,1.25,1.59-.5-.27-.87-.8-1.25-1.59Z"/>
  <path class="cls-27" d="M458.77,335.93c3.26-5.19,6.53-10.38,10.34-15.88,3.25-1.98,5.95-3.64,8.65-5.3-1.34,24.24-2.98,48.47-3.93,72.73-.99,25.27-2.02,50.57-1.72,75.84.28,24.1,2.26,48.17,3.48,72.26.08,1.65.01,3.32.01,5.67-.98-1.2-1.76-1.92-2.25-2.8-8.13-14.7-16.31-29.38-24.22-44.2-1.08-2.03-1.25-4.84-1.07-7.22,1.2-15.57,2.62-31.11,4.58-47,2.44-.31,4.26-.29,6.11.2.06,6.5.09,12.53.07,19.03-.05,15.75-.05,31.04-.05,46.33h1.48c0-15.59,0-31.18.11-47.22.44-11.59,1.09-22.72,1.05-33.84-.11-27.93-.5-55.85-.9-83.78-.02-1.37-1.19-2.73-1.81-4.27.02-.18.06-.54.06-.54h0Z"/>
  <path class="cls-5" d="M458.42,335.9c.35.03.32.39.29,1.05.27,18.6.8,36.54.82,54.48.02,16.11-.51,32.22-.79,48.33-1.82-.02-3.65-.04-5.93-.11-.08-21.05.31-42.05.8-63.79.11-1.52.11-2.31.15-3.52,2.39-10.09-1.04-18.83-4.38-27.57,2.6-3.17,5.21-6.34,7.57-9.79-.24-.27-.33-.34-.33-.34.49.41.98.83,1.82,1.27h-.02Z"/>
  <path class="cls-19" d="M451.19,393.41c-.42-.09-1.2-.49-1.38-1.07-2.72-8.59-5.36-17.2-7.65-26.26,1.4-2.9,2.74-5.26,3.41-7.8,1.91-7.17.3-8.71-6.92-6.99-.8.19-1.61.37-2.41.56-.36-1.73-.72-3.47-.67-5.62,1.91-1.18,3.44-1.89,4.9-2.73,1.6-.91,3.15-1.93,4.72-2.91.41,1.2.81,2.41,1.38,4.27,2.82,9.11,6.78,17.31,4.81,26.87-.19,1.56-.22,2.83-.25,4.11-.04,2.73-.08,5.45-.1,8.99.09,2.49.16,4.16.24,5.83-.05.78-.1,1.57-.06,2.74h-.02Z"/>
  <path class="cls-5" d="M477.91,314.37c-2.85,2.05-5.55,3.71-8.6,5.39,5.24-11.08,7.94-22.98,9.41-35.64.28,3.06.94,6.57.8,10.04-.25,6.62-.95,13.22-1.61,20.21Z"/>
  <path class="cls-10" d="M451.72,375.81c-.57-1.24-.54-2.51-.15-3.8.95.24,1.54.49,2.13.75,0,.79,0,1.58-.1,2.64-.49.3-.89.34-1.89.41h.01Z"/>
  <path class="cls-10" d="M451.41,390.37c-.23-1.37-.31-3.05-.29-5.13.21,1.34.33,3.08.29,5.13Z"/>
  <path class="cls-19" d="M566.08,689.01c.12-.12.21.26.21.26,0,0-.33-.14-.21-.26Z"/>
  <path class="cls-18" d="M378.37,469.12c-10.55,9.57-21.11,19.14-32.23,28.57.06-1.34.62-2.59,1.35-3.72,1.4-2.17,4.73-3.69,2.3-7.46.88-3.89-1-5.95-3.95-7.83-1.33-1.16-3.05-1.78-3.55-2.93-1.79-4.05-5.05-4.64-8.9-4.89-2.04-.13-4.08-1.15-6.02-2-4.58-2-6.07-1.1-6.7,4.07-1.77,1.07-3.18,2.08-4.95,3.16-.39,2.12-.42,4.18-.6,6.61-2.3,3.63-5.16,4.84-9.07,3.9-.93-.22-2.15.72-3.32,1.16-.09.04-.47,0-.9-.14-4.27.02-8.12.2-12.16.2-.5-.56-.81-.96-1.3-1.64-2.94-2.77-5.52-2.52-8.13.32-.42.32-.67.48-1.35.63-.54,3.36-.7,6.65-1.12,10.11-1.15.96-2.04,1.77-3.18,2.79-.36,2.14-.46,4.07-.54,6.47.51,2.05.99,3.63,1.47,5.2-1.95-1.25-3.91-2.49-5.82-4.2.15-1.42.7-2.87.29-3.25-4.36-3.96-9.04-7.42-15.14-8.2-4.23-3.71-8.46-7.41-12.79-11.86,1.01-7.35-3.08-11.26-7.55-14.89-2.66-2.16-5.96-3.72-8.11-6.27-3.1-3.68-4.65-8.35-7.9-12.24-6.3-7.54-11.28-16.18-16.8-24.37-.46-.69-.97-1.36-1.33-2.1-2.92-5.96-5.68-12.01-8.74-17.9-4.38-8.43-8.61-16.97-13.59-25.05-3.32-5.39-5.73-12.45-14.07-12.41-.33-.75-.66-1.5-.92-2.91,1.95-2.85,3.84-5.04,6.41-8.03-3.25-6.02-6.53-12-9.69-18.03-.51-.98-.6-2.21-.76-3.34-1.02-7.37-1.96-14.75-3.01-22.12-.57-4.03-1.57-8.02-1.89-12.07-.33-4.18-.07-8.41-.07-12.05,1.41-2.28,2.69-4.38,3.98-6.47,1.1-.67,2.2-1.34,3.95-1.83.35,1.24.06,2.29-.65,4.79,3.05-2.52,5.03-4.15,7.01-5.79,5.03-2.61,10.06-5.22,15.74-8.06,1.43-.53,2.19-.92,2.98-1.11,15.93-3.96,31.93-7.65,47.76-11.95,7.57-2.05,14.82-5.26,22.22-7.94,3.81.09,4.07-3.13,3.97-5.35-.13-2.85-1.51-5.65-2.68-8.6-.32-.13-.24-.14-.28-.42-.37-.42-.69-.56-1.19-1.01-2.1-1.09-3.96-2.19-5.96-2.52-2.09-.35-4.85-.88-4.9,2.78-14.34,5.66-28.68,11.31-43.02,16.97-.06-.32-.13-.63-.19-.95,7.38-7.3,14.77-14.6,22.79-21.91,7.68,1.53,15.52-2.67,19.21-9.86.97-1.9,1.83-4.01,3.29-5.48,4.74-4.78,9.85-9.2,14.59-13.98,6.23-6.29,13.98-11.61,14.64-21.7.03-.41.56-.8.86-1.19,4.79-6.21,9.95-12.18,14.25-18.71,2.83-4.29,4.36-9.43,6.6-14.13,1.82-3.79,3.86-7.48,5.75-11.24.83-1.66,1.54-3.39,2.3-5.09,2.1.63,4.21,1.26,6.67,2.28.66.53.97.68,1.28.82,1.15.24,2.29.48,3.63,1.3-.13.93-.44,1.3-.78,1.64-1.55,1.53-3.9,2.84-4.36,4.65-.27,1.03,2.32,3.17,3.98,4.26,4.82,3.14,10,5.72,14.7,9.01,8.82,6.17,17.56,12.49,26.02,19.14,4.98,3.92,9.49,8.47,13.98,12.96,3,3,5.07,2.51,6.92-1,2.35,3.81,4.7,7.61,6.82,11.9-.93,2.17-2.66,4.34-2.14,5.47,1.7,3.72,4.11,7.14,6.46,10.53,1.77,2.56,4.22,2.89,6.89,1.26,3.82,5.03,7.63,10.06,11.22,15.56-1.93,2.76-3.7,4.99-5.29,7.34-1.14,1.68-2.05,3.52-3.49,5.31-15.83-2.33-31.32-4.23-46.61-7.17-11.88-2.29-11.77-2.87-18.1,7.43-.12.2-.55.22-1.47.57.29-3,.54-5.7.85-8.95-5.41,8.71-2.81,14.73,6.02,16.98,16.31,4.16,32.81,4.87,49.48,3.86,10.22-.62,20.24.09,30.08,4.15,1.08.52,1.94.88,3.03,1.5,3.21,1.67,6.19,3.08,9.23,4.72.26.14.46.05.66-.05-.24-.06-.48-.13-.6-.53-1.31-2.42-2.73-4.5-3.98-6.88,2.63.13,5.38.02,7.5,1.12,2.35,1.21,3.61,3.64,2.3,6.62-1.05,2.4-2.28,4.8-2.83,7.33-.77,3.53-2.38,4.63-5.96,3.8-3.55-.83-7.21-.94-9.53,3.23-5.74-2.16-11.05-4.51-16.5-6.46-20.95-7.48-40.64-6.69-58.02,8.88-2.18-3.35-4.87-5.17-8.49-3.83-3,1.11-5.83,7.66-4.33,11.02.63,1.41,3.75,1.71,5.7,2.88-.68,2.87-1.31,5.38-1.97,8.23-1.33,5.49,1.74,9.69,9.04,12.63,4.49,1.73,8.73,3.21,13.32,4.83,4.04.96,7.7,2.04,11.44,2.55,21.3,2.87,43.42-9.29,50.85-27.59,4.15.88,7.73,1.43,10.8-2.01.65-.73,3.24-.86,3.9-.21,1,.98,1.49,2.89,1.49,4.41,0,2.76-.88,5.55-.73,8.29.37,6.76,1.57,7.91,7.69,8.52-.26,2.81-.51,5.61-1.08,9.18-1.12-.43-1.83-1.71-2.78-2.78-.35-.4-1.25-.32-1.92-.44-.02.02.02-.01.47-.23.12-.73-.2-1.25-.67-2.02-1.44.38-2.74,1.02-4.03,1.65-6.16,7.26-3.86,15.72-3.26,23.87.28,3.76,1.32,7.47,2.2,12.22-1.82-1.03-2.93-1.48-3.83-2.2-8.05-6.44-16.06-12.93-24.09-19.4-1.29-1.04-2.51-2.36-3.99-2.93-2.19-.83-4.75-1.8-6.84-1.32-1.01.23-1.32,3.63-1.85,5.61-.2.76-.12,1.59-.14,1.81-2.49-.12-6.13-1.13-6.79-.15-1.39,2.08-2.13,5.44-1.49,7.85.99,3.74,2.89,7.46,5.22,10.57,4.08,5.44,8.79,10.4,13.23,16.03-.13.61-.25.74-.38.88-5.85-3.08-11.64-6.28-17.59-9.16-1.64-.79-4.58-1.52-5.42-.72-1.25,1.21-2.18,4.31-1.47,5.71,2.64,5.21,6,10.04,8.94,15.51-.38,1.84-1.24,4.04-.74,4.4,4.17,3.05,8.54,5.84,12.99,8.48.45.26,1.81-1.02,2.75-1.59M401.73,392.05c.52-.02,1.04-.05,1.94.01.53,2.49.68,4.9.42,7.79-1.14,2.31.05,4.76.12,6.56.47,11.18-2.25,21.4-6.53,31.56-1.55,3.67-7.38,8.32-2.5,12.38-.61.87-1.22,1.74-2.44,2.71-.11,1.04-12.93,14.74-13.58,15.12M250.98,275.45c-.26-.22-.52-.43-1.12-1.25-4.18-2.21-8.37-4.43-12.55-6.64-.23.45-.46.91-.68,1.36,4.3,2.2,8.6,4.41,13.3,6.99.35.04.69.08,1.03.55.23,0,.47.01.7.02-.22-.17-.43-.34-.69-1.03M344.82,273.93c4.04-2.74,8.08-5.49,12.12-8.23l-1.11-1.5c-4.14,3.07-8.28,6.14-12.86,9.53-.2.55-.39,1.1-.59,1.65.6-.4,1.2-.8,2.44-1.44M275.18,399.71c1.28.42,2.55.85,4.46,1.35.78.32,1.56.63,2.38,1.7.44,5.17,5.34,4.21,8.26,5.71,5.71,2.93,11.41,1.79,17.36-1.61.78-.31,1.56-.61,2.94-.95.48-.33.96-.65,2.12-1.06,1.43-.63,2.87-1.25,4.89-1.93.47-.32.95-.63,2.08-.96.43,0,.87-.01,1.95-.06.79-.65,1.59-1.29,3.04-1.96.44,0,.87-.02,2.05,0,8.28-2.04,10.32-8.92,4.25-16.68-1.36-2.35-1.41-6.12-6.87-5.97,1.75,1.84,2.59,2.72,2.62,3.63-1.3-.81-3.45-1.38-3.77-2.48-1.88-6.43-3.33-12.99-4.93-19.51-.65-2.65-1.33-5.29-1.97-8.88.69-11.47,1.39-22.93,2.09-34.47-.29.31-.78.85-1.94,1.22-2.87-3.3-4.75-3.31-5.61.38-2.1,8.99-4.44,18.01-5.39,27.15-1.2,11.64-.65,11.69-11.86,13.65-.65.11-1.3.25-1.95.37-4.13.73-5.42-.73-4.19-4.74,1.43-4.68-.54-9.1-4.79-11.67,1.54-14.86-.9-30.41-5.83-35.44,1.2,4.82,3.01,9.23,3.28,13.74.54,8.87.22,17.8-.29,27.1-3.87,5.84-3.81,12.48-3.89,19.1-.05,4.37,1.12,9.03-3.32,12.91-6.34,9.55-5.49,15.84,2.85,20.36M251.38,324.78c-7.09,4.46-14.17,8.91-20.67,12.99,5.35.52,17.15-6.26,21.62-12.95-.05-.15-.11-.29-.16-.44-.03.22-.07.44-.79.4M276.58,459.41c15.05,6.81,30.54,5.25,46,2.14,7.17-1.44,13.64-4.68,18.81-10.97,2.21-2.06,4.43-4.12,7.39-6.07h10.43c-3.26-2.01-6.54-4.03-9.81-6.06-5.36-3.33-10.57-6.93-16.1-9.95-7.2-3.93-14.56-4.58-21.48.83-4.14,3.23-8.45,3.44-13.08,1.24-5.74-2.72-11.09-1.79-15.79,2.23-6.8,5.82-13.42,11.85-20.75,18.2-2.04.84-4.09,1.68-6.13,2.52.19.48.38.96.57,1.45,2.15-.82,4.29-1.65,7.11-2.43.44.07.88.15,1.7.79,3.53,1.88,7.05,3.76,11.14,6.07M176.63,301.37c1.17,2.27,2,4.82,3.57,6.77,12.65,15.69,29,22.05,48.69,17.47,6.96-1.62,13.36-5.63,20.57-8.51,1.64-.72,3.26-1.48,4.93-2.14,4.79-1.88,7.48-5.24,7.66-11.3-5.36-15.9-16.86-24.73-32.92-27.69-14.15-2.61-27.29.92-39.77,7.8-7.2,3.97-14.13,8.94-23.04,8.43-.61-.03-1.26.75-3.33,2.08,5.02,2.56,9.02,4.6,13.63,7.08M212.84,371.3c-4.06-.39-6.08,1.65-7.42,5.37-1.34,3.75.1,8.77,3.79,10.74,4.36,2.34,8.09,1.32,10.51-2.88,4.39-7.59,2.84-10.9-6.89-13.24M243.83,424.95c1.22-5.05-1.3-8.25-5.36-10.59-2.96-1.71-5.33-.96-8.03,1.2-2.89,2.31-4.7,4.74-3.85,8.35.97,4.1,6.33,8.04,10.38,8.06,4.17.01,5.61-2.89,6.86-7.01M382.03,428.47c1.27-.1,2.92.26,3.74-.4,1.91-1.54,4.94-3.74,4.77-5.38-.31-2.93-2.12-6.24-4.34-8.22-1.24-1.1-5.24-.63-6.81.62-1.81,1.43-3.45,4.72-3.06,6.82.43,2.33,3.23,4.22,5.71,6.57M361.55,367.57c.14-2.13.53-4.29.35-6.4-.27-3.22-5.84-7.04-8.55-5.49-2.68,1.53-6.58,4.31-6.53,6.46.07,3.21,2.43,7.37,5.13,9.24,3.07,2.13,7.02.68,9.59-3.82M282.21,225.89c.38,1.58.24,3.72,1.23,4.62,1.93,1.76,4.81,4.26,6.7,3.84,2.27-.51,4.81-3.47,5.61-5.9.96-2.94,1.04-6.62-3.26-8.28-5.39-2.09-7.29,2.17-10.29,5.73M353.05,198.16c-3.99,1.49-6.98,4.02-5.45,8.56,1.17,3.47,3.47,6.22,8.19,5.58,5.07-.69,5.02-4.59,4.93-7.77-.1-3.85-1.88-7.22-7.67-6.36M356.17,397.73c-.38,1.25-1.45,2.89-1,3.68,1.45,2.56,3.05,5.49,5.41,6.94,1.41.87,5.99-.28,6.31-1.35.92-3.13,1.75-7.68.14-9.83-2.4-3.21-6.89-3.57-10.85.57M341.84,179.18c-1.53-3.17-3.79-5.25-7.45-3.67-3.48,1.5-6.98,4.26-5.84,8.07.69,2.31,4.55,4.62,7.33,5.16,4.58.88,6.17-1.89,5.96-9.56M296.53,186.05c2.09-.27,5.78-.1,5.99-.87.86-3.2,1.18-6.78.56-10-.2-1.06-4.51-2.62-5.79-1.9-2.5,1.4-5.12,3.99-5.85,6.6-.42,1.5,2.75,4.02,5.09,6.18M317.15,207.79c-3.52.19-4.81,2.35-3.89,5.38.42,1.41,3.1,3.54,3.33,3.37,1.98-1.42,4.4-3.03,5.14-5.12.67-1.92-.19-4.92-4.58-3.64M352.11,325.55c-2.41-1.77-4.82-3.54-7.23-5.3,5.03,7.43,15.02,12.51,20.28,11.13-4.02-1.76-8.22-3.6-13.05-5.83M277.32,278.14c-1.76-2.85-3.52-5.69-5.27-8.54-.38.23-.77.46-1.15.69,2.77,5.21,5.54,10.42,8.31,15.64.38-.17.75-.34,1.13-.5-.88-2.21-1.76-4.42-3.02-7.28"/>
  <path class="cls-3" d="M379.65,508.31c-3.18,1.88-6.81,2.67-9.27,4.81-12.6,10.92-27.88,17-42.75,23.58-11.71,5.18-24.33,7.23-37.36,7.2-14-.02-27.19-2.52-39.63-8.98-4.08-2.12-8.29-3.97-12.79-6.09-1.21-15.72-2.06-31.3-2.95-47.47,4.1,3.86,7.76,7.87,11.98,11.18,11.38,8.9,22.47,18.32,34.64,26.03,17.35,10.99,33.62,9.64,49.38-3.38,16.3-13.46,32-27.65,47.96-41.52.7-.61,1.42-1.2,2.63-2.21-.6,12.63-1.17,24.51-1.82,36.86h-.02Z"/>
  <path class="cls-19" d="M144.92,277.35c-2.2,1.36-4.29,2.62-6.56,3.21-2.7.71-5.55.86-8.93.99-2.35-2.49-4.11-4.72-5.87-6.95-.64.23-1.28.46-1.93.7.37,4.3.73,8.61,1.1,12.91.42-.02.85-.05,1.27-.07-.16-3.16-.33-6.31-.49-9.47.33-.06.67-.13,1-.19,2.34,4.11,4.69,8.23,7.12,12.67.87,1.96,1.66,3.59,2.52,5.57.76,2.05,1.65,3.7,2.06,5.46.38,1.61.95,3.76.23,4.95-6.86,11.33-5.16,21.98,5.29,30.99.51.3.92.34,1.33.39-.25-.46-.49-.91-.91-1.66-2.16-3.53-4.4-6.64-6.09-10.03-3.1-6.21-2.06-13.44,2.45-18.05,1.26,2.86,2.47,5.61,3.68,8.36.51-.2,1.02-.4,1.53-.61-2.74-7.1-5.48-14.2-8.29-21.61-.25-.92-.42-1.53-.6-2.14,3.48.03,6.97.07,10.94.14-1.74,22.43,3.67,43.57,10.51,65.63-3.64-1.5-7.86-2.28-10.79-4.66-4.32-3.5-8.39-7.7-11.4-12.35-15.8-24.45-21.89-51.06-16.38-79.93.55-2.88,1.67-5.78,3.14-8.32,3.49-6.01,10.24-6.44,13.5-.38,4.14,7.69,7.11,16.01,10.57,24.46h0Z"/>
  <path class="cls-28" d="M321.72,472.65c.28-5.12,1.77-6.02,6.35-4.02,1.94.85,3.97,1.86,6.02,2,3.85.25,7.11.83,8.9,4.89.51,1.15,2.22,1.77,3.15,2.96-3.54-.09-5.97,1.41-6.18,4.58-.12,1.9,1.03,4.86,2.49,5.61,1.51.77,4.1-.58,6.23-.96.02.04-.06,0,.21,0,.69-.35,1.11-.7,1.52-1.05,2.52,3.39-.81,4.91-2.21,7.08-.73,1.13-1.29,2.38-1.67,3.81-.52.93-1.28,1.63-2.58,2.14-3.09-1.91-6.44-3.11-8.01-5.48-2.07-3.13-5.64-6.23-9.29-5.34-3.05.74-5.26,2.34-3.02,6.24-2.58,3.18-2.93,6.14.18,8.56,3.52,2.74,6.82,1.69,9.81-1.08,1.18,1.29,2.2,2.25,3.22,3.22-10.3,9.84-21.43,18.83-36.74,15.62-8.2-1.72-15.8-6.34-23.78-9.8-.6-1.73-1.08-3.3-1.35-5.23.63-.03,1.04.29,1.56.99,2.55.13,5.01-.11,7.76-.57,2.8-5.86,1.52-7.99-5.58-9.95.16-3.3.31-6.59.8-9.56.72,2.22,1.11,4.1,1.72,6.25,5.94,3.03,9.06.95,9.31-5.78,3.85-.17,7.69-.35,11.7-.2-.27.76-.7,1.2-1.37,1.83-2.93,2.51-2.26,5.53-.22,7.13,1.65,1.29,5.03,1.78,6.94.96,3.02-1.28,3.91-4.27,1.56-7.54-.26-.38-.44-.56-.89-.97-1.74-.67-3.26-1.07-4.77-1.47,1.08-.41,2.3-1.35,3.23-1.13,3.91.94,6.77-.28,9.4-3.73,2.94-.33,5.39-.48,8.17-.82,2.92-4.34,1.26-7.12-2.59-9.18M307.36,515.79c2.96-2.43,3.06-5.73.21-7.45-1.94-1.17-5.73-.84-7.9.31-2.65,1.4-2.54,4.69-.34,6.83,2.13,2.07,4.81,3.77,7.39.27,0,0-.08-.05.64.04Z"/>
  <path class="cls-3" d="M307.49,129.26c-.46,1.91-1.17,3.64-2,5.3-1.89,3.76-3.93,7.44-5.75,11.24-2.25,4.7-3.77,9.84-6.6,14.13-4.3,6.53-9.46,12.5-14.25,18.71-.3.39-.83.77-.86,1.19-.66,10.09-8.41,15.41-14.64,21.7-4.74,4.78-9.85,9.19-14.59,13.98-1.46,1.47-2.32,3.58-3.29,5.48-3.68,7.19-11.53,11.39-18.94,9.68,10.35-12.86,21.03-25.58,31.8-38.23,16.97-19.92,31.96-41.14,43.04-65.14,2.04.61,3.91,1.18,6.08,1.96Z"/>
  <path class="cls-26" d="M447.88,311.76c.35-15.58,1.3-31.18.83-46.73-.31-10.39,3.48-18.73,9.47-26.34,5.81-7.38,13.28-5.99,16.02,2.95,1.69,5.5,2.12,11.39,2.64,17.59-2.57,1.32-4.67,2.17-6.16,2.78-.34,2.3-.58,3.95-1,6.74-1.72-2.85-2.66-4.41-3.56-6.31.97-1.73,1.9-3.11,3.04-4.8-1.31-2.2-2.8-.91-3.77,1.49-3.34,8.26-6.71,16.52-9.72,24.9-1.66,4.62-2.64,9.49-3.92,14.25.46.14.93.28,1.39.41.92-2.6,1.84-5.2,2.83-7.99,6.28,6.2,6.68,11.39,1.52,21.12-3.52-.03-6.58-.04-9.63-.05h.02,0Z"/>
  <path class="cls-26" d="M400.72,241.89c1.01-1.77,1.92-3.61,3.06-5.29,1.6-2.35,3.37-4.58,5.45-7.02,9.95,10.26,21.01,18.57,34.08,24.17,1.17.5,1.98,2.63,2.28,4.13.39,1.92.09,3.97-.38,6.42-5.11,1.01-4.77,4.82-4.23,7.59.51,2.62-.84,7.42,4.73,6.86-.32,10.71-.65,21.42-1.09,32.57-6.23-.17-7.44-1.32-7.8-8.08-.15-2.74.74-5.53.73-8.29,0-1.52-.49-3.42-1.49-4.41-.66-.65-3.25-.53-3.9.21-3.07,3.44-6.65,2.89-10.9,1.67-.51-.58-.53-.82-.64-1.1-.08-.05-.02-.23.26-.49,4.54-2.12,9.06-3.67,11.02-9.29-3.94-.68-7.57-1.31-11.2-1.93,1.96-4.17,5.61-4.06,9.16-3.23,3.58.84,5.19-.27,5.96-3.8.55-2.53,1.78-4.93,2.83-7.33,1.31-2.98.05-5.41-2.3-6.62-2.13-1.09-4.87-.99-7.79-1.28-3.91-2.79-7.37-5.71-11.06-8.88-5.75-2.37-11.26-4.48-16.78-6.6v.02h0Z"/>
  <path class="cls-19" d="M447.81,312.21c3.13-.44,6.18-.43,9.63-.05.13,1.04-.13,1.71-.5,2.64,6.87-3.49,8.1-15.89,3.12-24.3,6.4-4.44,4.71-11.45,7.47-17.14-2.72.96-4.61,1.63-6.41,1.91,1.71-4.41,3.34-8.45,4.96-12.48.94,1.56,1.87,3.11,3.6,5.96.41-2.79.66-4.43,1-6.74,1.49-.6,3.59-1.45,6.1-2.33.98,26.79-3.57,52.19-20.15,74.62-.03.34.06.41.03.36-1.48.63-2.93,1.32-4.38,1.99-1.37.64-3.68,2.07-3.96,1.75-1.19-1.37-2.54-3.3-2.46-4.97.25-5.61,1.1-11.19,1.68-16.78.14-1.32.14-2.66.27-4.43h0Z"/>
  <path class="cls-22" d="M164.64,369.13c8.38-.42,10.78,6.65,14.1,12.03,4.98,8.08,9.21,16.62,13.59,25.05,3.06,5.89,5.82,11.93,8.74,17.9.36.74.86,1.41,1.33,2.1,5.52,8.19,10.5,16.83,16.8,24.37,3.25,3.89,4.8,8.56,7.9,12.24,2.15,2.55,5.45,4.11,8.11,6.27,4.48,3.64,8.56,7.55,7.41,14.61-22.67-20.97-41.87-45.1-56.77-72.48-7.45-13.7-14.18-27.79-21.2-42.08h0Z"/>
  <path class="cls-22" d="M379.77,184.19c-1.8,3.84-3.87,4.33-6.87,1.34-4.5-4.49-9-9.05-13.98-12.96-8.46-6.65-17.2-12.96-26.02-19.14-4.7-3.29-9.89-5.88-14.7-9.01-1.66-1.08-4.25-3.23-3.98-4.26.47-1.8,2.81-3.12,4.36-4.65.34-.34.65-.71,1.05-1.41,24.4,11.19,46.23,25.71,60.14,50.09Z"/>
  <path class="cls-5" d="M178.91,272.36c6.87-4.86,13.2-10.89,20.72-14.34,14.16-6.49,28.97-11.59,43.58-17.08,7.88-2.96,13.29.53,14.27,9.51-16.37,4.59-32.25,8.68-48.06,13.05-8.76,2.42-17.38,5.31-26.07,7.99-1.16.28-2.31.56-3.85.83-.38,0-.59.03-.59.03h0Z"/>
  <path class="cls-22" d="M158.35,283.79c-.92,2.05-2.2,4.14-3.61,6.42,0,3.63-.26,7.86.07,12.05.32,4.05,1.31,8.03,1.89,12.07,1.05,7.37,1.99,14.75,3.01,22.12.16,1.13.24,2.36.76,3.34,3.16,6.04,6.44,12.01,9.69,18.03-2.57,2.99-4.46,5.18-6.42,7.72-10.31-24.92-17.71-50.7-14.33-78.56,2.67-.98,5.62-2.06,8.93-3.19h0Z"/>
  <path class="cls-22" d="M395.61,450.69c-5.09-3.82-2.44-9.16-.9-12.83,4.29-10.17,7.59-20.28,7.12-31.46-.08-1.8,1.33-3.66,2.44-5.57,2.03,7.16,3.93,14.35,5.19,21.65.37,2.14-.69,4.8-1.78,6.86-3.79,7.13-7.88,14.09-12.07,21.36h0Z"/>
  <path class="cls-26" d="M445.08,340.22c-1.46,1.35-3,2.37-4.61,3.29-1.46.83-2.99,1.54-4.91,2.34-2.38-8.55-4.07-17.14-.11-26.26.98-1,1.63-1.47,2.52-1.68.42.11.61-.03.79-.18,0,0-.04.03-.27.32.44,2.14,1.1,4,1.77,5.86,1.57,5.31,3.14,10.62,4.82,16.32h0Z"/>
  <path class="cls-10" d="M183.61,271.65c8.42-2.83,17.05-5.72,25.8-8.14,15.81-4.37,31.69-8.47,47.94-12.66.4,0,.39.51.39.76-7.4,2.93-14.65,6.13-22.22,8.19-15.84,4.3-31.84,7.99-47.76,11.95-.8.2-1.55.58-2.7.91-.65-.26-.92-.55-1.45-.99v-.02Z"/>
  <path class="cls-22" d="M391.91,471.53c.65-.38,2.21.8,3.69,1.33"/>
  <path class="cls-18" d="M323.81,494.79c-2.42-3.58-.21-5.18,2.83-5.92,3.66-.88,7.22,2.21,9.29,5.34,1.57,2.38,4.92,3.57,7.72,5.6-1.9,2.13-4.04,3.97-6.5,5.9-1.34-.87-2.36-1.83-3.46-3.5.23-7.64-2.83-9.73-9.89-7.42h.01Z"/>
  <path class="cls-22" d="M397.78,213.35c-2.59,1.96-5.04,1.63-6.81-.92-2.35-3.39-4.76-6.81-6.46-10.53-.52-1.14,1.21-3.3,2.26-5.14,3.88,5.32,7.4,10.79,11.01,16.6h0Z"/>
  <path class="cls-16" d="M426.49,584.4c.25.91.24,1.57.23,2.56-9.25-4.23-18.5-8.78-27.93-13.61.09-.95.36-1.62.91-2.53,9.04,4.29,17.79,8.81,26.79,13.58h0Z"/>
  <path class="cls-23" d="M453.75,372.34c-.64.17-1.23-.09-2.02-.61,1.62-9.54-2.34-17.75-5-26.58.66-.39,1.33-.39,2.32-.39,3.66,8.75,7.1,17.48,4.71,27.57h-.01Z"/>
  <path class="cls-6" d="M445.81,278.31c-5.67,1.02-4.32-3.79-4.83-6.41-.54-2.77-.89-6.58,4.14-7.15.52,4.36.65,8.73.69,13.56Z"/>
  <path class="cls-11" d="M247.1,236.77c-.34-3.71,2.42-3.18,4.51-2.83,1.99.33,3.86,1.44,6.02,2.84.55.75.86.86,1.17.98,0,0-.08,0-.08-.03.34,2.34.67,4.72.83,5.84-3.7-2.07-7.88-4.41-12.45-6.8h0Z"/>
  <path class="cls-6" d="M255.7,496.14c5.95.47,10.63,3.94,14.99,7.89.42.38-.14,1.83-.59,2.94-4.98-3.4-9.61-6.97-14.4-10.84h0Z"/>
  <path class="cls-10" d="M168.83,280.78c-1.77,1.77-3.75,3.4-6.81,5.92.7-2.5,1-3.55.98-4.78-.32-.18-.31-.12,0,.04.44-.29.58-.74.72-1.19,1.4-.69,2.81-1.38,4.61-2.05.4.03.51.13.51.13-.07.6-.14,1.2,0,1.93h0Z"/>
  <path class="cls-23" d="M440.61,323.85c-1.02-1.8-1.69-3.66-2.11-5.82.9-.17,1.8-.25,2.15.15.95,1.07,1.66,2.35,2.81,3.21-.6.58-1.55,1.49-2.85,2.45h0Z"/>
  <path class="cls-10" d="M390.75,457.61c.27-.78.89-1.57,1.77-2.52-.3.73-.86,1.62-1.77,2.52Z"/>
  <path class="cls-10" d="M390.71,461.94c-.35.3-.66.44-1.45.79-.03-.45.43-1.1,1.18-1.86.3-.11.38-.04.38-.04,0,.32-.03.64-.1,1.11h-.01Z"/>
  <path class="cls-10" d="M175.01,274.77c.12-.15.23-.17.35-.19-.12.11-.23.21-.35.19Z"/>
  <path class="cls-10" d="M315.72,132.38c-.3.05-.6-.09-.92-.52.3-.08.6.12.92.52Z"/>
  <path class="cls-10" d="M390.69,460.72c.09-.04.21-.04.23.04-.11.07-.19,0-.23-.04Z"/>
  <path class="cls-10" d="M168.68,278.69c.1-.04.24-.03.27.07-.12.08-.23-.02-.27-.07Z"/>
  <path class="cls-18" d="M163.47,280.86c.11.36-.03.81-.5,1.09-.13-.44.06-.72.5-1.09Z"/>
  <path class="cls-10" d="M179.07,272.42c-.06.09-.12-.04-.14-.05-.02,0,.2-.04.14.05Z"/>
  <path class="cls-20" d="M131.55,290.82c-2.34-4.11-4.69-8.23-7.03-12.34-.33.06-.67.13-1,.19.16,3.16.33,6.31.49,9.47-.42.02-.85.05-1.27.07-.37-4.3-.73-8.61-1.1-12.91.64-.23,1.28-.46,1.93-.7,1.76,2.23,3.52,4.46,5.48,6.92,1.58,3.02,2.96,5.81,4.09,8.92-.69.34-1.14.36-1.58.37h0Z"/>
  <path class="cls-2" d="M131.63,291.15c.35-.34.8-.36,1.57-.36.64.51.95,1.01,1.45,1.74.36.84.54,1.45.42,2.65-.53.79-.77.99-1,1.19-.78-1.63-1.57-3.26-2.44-5.21h0Z"/>
  <path class="cls-2" d="M401.31,531.23c.85,12.19,1.59,23.92,2.33,35.65-.47.04-.94.08-1.4.11-1.37-17.2-2.75-34.4-4.12-51.6.47-.07.93-.14,1.4-.21.4,2.55.89,5.08,1.17,7.64.29,2.64.36,5.3.63,8.41h-.01Z"/>
  <path class="cls-19" d="M430.96,355.55c-.72.69-1.68,1.04-2.51,1.6-1.58,1.06-3.08,2.23-4.76,3.71-8.28-6.44-16.42-13.24-24.57-20.02-3.44-2.87-4.35-6.44-2.87-11.8,2.41,1.43,4.67,2.45,6.57,3.94,9.37,7.37,18.64,14.87,28.13,22.57h.01Z"/>
  <path class="cls-26" d="M436.21,352.24c.83-.58,1.64-.76,2.44-.95,7.22-1.72,8.83-.18,6.92,6.99-.67,2.54-2.01,4.9-3.4,7.41-2.24-4.31-4.11-8.68-5.95-13.45h0Z"/>
  <path class="cls-22" d="M401.78,392.34c-.76.86-2.12,2.14-2.57,1.88-4.45-2.63-8.82-5.42-12.99-8.48-.49-.36.37-2.56.95-4.11,5.05,3.33,9.74,6.88,14.61,10.71Z"/>
  <path class="cls-2" d="M437.73,317.65c-.65.47-1.3.94-2.17,1.64-.37-.16-.52-.55-.87-1.54,1.11-1.24,2.4-1.87,3.64-2.07-.24.95-.42,1.46-.6,1.97h0Z"/>
  <path class="cls-28" d="M437.53,363.26c-2.77.46-4.21-.45-2.66-3.82,1,.9,1.83,2.17,2.66,3.82Z"/>
  <path class="cls-18" d="M403.08,369.38c.51.27.82.74,1.13,1.22-.46-.04-.91-.08-1.54-.36-.04-.38.08-.52.41-.86h0Z"/>
  <path class="cls-26" d="M159.45,627.87c4.63.19,9.54-.53,13.84.76,11.66,3.5,22.51,8.87,32.87,15.43,4.27,2.7,9.96,3.1,14.94,4.76,2.3.77,4.41,2.07,6.63,3.08,8.02,3.64,16.01,7.34,24.09,10.85,6.63,2.88,11.71,6.77,11.56,14.88-.01.68.75,1.37,1.15,2.06-.26.37-.52.73-.79,1.1-2.3-1.45-4.6-2.9-7.05-5.03-2.15-1.82-4.1-3.09-6.18-4.06-11.75-5.45-23.62-10.63-35.28-16.27-18.67-9.03-37.19-18.35-55.78-27.55h0Z"/>
  <path class="cls-26" d="M362.01,686.61c-2.15.72-4.41,3.53-6.46.22-1.81-2.93-1.23-6.04,1.63-7.91,5.67-3.71,11.51-7.18,17.41-10.52,10.44-5.93,20.88-11.88,31.52-17.45,6.99-3.66,14.2-6.98,21.57-9.77,2.45-.93,6.92-2.25,6.69,3.62-23.57,12.99-46.58,25.64-69.53,38.41-1.21.67-1.9,2.26-2.83,3.42v-.02h0Z"/>
  <path class="cls-20" d="M159.16,627.82c18.88,9.25,37.4,18.57,56.07,27.6,11.65,5.64,23.53,10.82,35.28,16.27,2.09.97,4.03,2.24,6.12,3.72-1.19.1-2.58.11-3.71-.42-30.21-14.32-60.4-28.69-90.57-43.09-2.03-.97-3.87-2.32-5.47-4.41.66.09,1.32.19,2.27.33h0Z"/>
  <path class="cls-20" d="M343.36,599.49c-6.38,16.01-12.58,31.67-18.78,47.34-.6-.24-1.19-.48-1.79-.72,10.27-26.39,20.54-52.79,30.81-79.18.48.16.96.31,1.44.47-1.83,5.3-3.58,10.62-5.49,15.89-1.93,5.31-4,10.57-6.18,16.21h-.01Z"/>
  <path class="cls-20" d="M362.34,686.54c.6-1.09,1.3-2.67,2.51-3.34,22.95-12.76,45.96-25.42,69.26-38.2-1.25,1.45-2.55,3.46-4.4,4.49-22.3,12.41-44.68,24.68-67.37,37.06h0Z"/>
  <path class="cls-20" d="M296.64,687.82c7.1,3.91,13.76,3.68,20.14-2.91-3.64,8.88-13.23,10.22-19.99,3.2-.1-.32-.15-.29-.15-.29h0Z"/>
  <path class="cls-20" d="M296.72,687.77c-.15-.19-.33-.36-.51-.53.2.07.41.15.52.4-.09.18-.04.15-.02.13h.01Z"/>
  <path class="cls-2" d="M132.69,442.8c2.27,32.31,4.46,64.16,6.82,96,1.02,13.73,2.4,27.43,3.61,41.14-.41.06-.83.13-1.24.19-.67-4.71-1.57-9.41-1.96-14.15-2.17-26.51-4.16-53.04-6.31-79.56-2.5-31-5.39-61.96-7.53-92.98-1.2-17.41-1.24-34.91-1.8-52.37l1.26-.19c.32,1.12.85,2.22.92,3.36,2.1,32.69,4.15,65.39,6.23,98.55h0Z"/>
  <path class="cls-2" d="M155.57,385.8c.74,18.61,1.49,37.22,2.21,55.83,1.4,36.09,4.56,71.96,13.27,107.15.38,1.52.45,3.11-.5,4.9-1.26-5.25-2.55-10.5-3.76-15.77-5.78-25.01-9.04-50.37-10.11-75.98-.96-23.1-1.43-46.22-2.15-69.33-.06-1.99-.39-3.96-.31-6.37.64-.43.99-.43,1.35-.43h0Z"/>
  <path class="cls-2" d="M200.42,526.21c-1.62-16.83-3.11-33.21-4.72-49.58-1.23-12.56-2.6-25.11-3.9-37.67-.07-.65,0-1.31.47-2,6.67,43.08,11.53,86.31,11.91,129.96-.41.03-.83.07-1.24.1-.81-13.45-1.63-26.9-2.52-40.81h0Z"/>
  <path class="cls-20" d="M155.61,385.36c-.4.44-.75.44-1.38.45-.96-7.52-1.65-15.06-2.35-22.6l1.66-.13c.7,7.28,1.4,14.56,2.06,22.28h.01Z"/>
  <path class="cls-2" d="M458.76,440.23c.26-16.58.78-32.69.76-48.8-.02-17.94-.55-35.88-.84-54.3.65.88,1.82,2.24,1.84,3.61.4,27.93.79,55.85.9,83.78.04,11.13-.6,22.25-1.27,33.83-.65.43-.96.43-1.27.43-.03-6.03-.06-12.07-.12-18.57v.02Z"/>
  <path class="cls-10" d="M458.83,459.26c.36-.47.67-.47,1.2-.44.23,15.6.23,31.19.23,46.77h-1.48c0-15.29,0-30.58.05-46.33Z"/>
  <path class="cls-6" d="M316.72,350.78c.66,2.65,1.34,5.29,1.99,7.94,1.6,6.51,3.05,13.07,4.93,19.51.32,1.1,2.47,1.67,4.38,2.75.96,2.11,1.31,3.94,1.29,5.73-5.25-.07-10.14-.09-15.09-.2-.3-.08-.46.05-.51.29.04,0,.04-.09-.3-.07-.48.36-.61.71-.71,1.07.04,0,.04-.07-.31-.26-8.7,5.52-16.89,5.56-24.98-.78-.5-.39-1.56-.06-2.74-.04-4.52.03-8.67.03-12.81-.33.59-2.77,1.18-5.17,1.76-7.57,3.85-3.56,2.68-8.21,2.73-12.58.08-6.62.03-13.25,4.39-19.23.81.2,1.13.54,1.63,1.07.25-1.94.48-3.67.71-5.4,4.25,1.64,6.22,6.06,4.79,10.74-1.22,4.01.07,5.47,4.19,4.74.65-.12,1.3-.25,1.95-.37,11.21-1.96,10.66-2.01,11.86-13.65.95-9.14,3.29-18.17,5.39-27.15.86-3.69,2.75-3.67,6.03.05.1,1.52-.21,2.62-.67,3.81-.22.17-.37.28-.36.33.07.2.19.38.3.97-.62,8.12-1.38,15.82-1.75,23.55-.08,1.67,1.22,3.4,1.89,5.11M294.57,374c-.61,1.54-1.68,3.11-1.62,4.63.03.68,2.28,1.61,3.6,1.76.6.07,2.14-1.86,1.97-2.19-.83-1.56-2.11-2.88-3.94-4.19M306.91,374.02c-3.08-.58-4.77.77-3.83,3.73.38,1.19,2.62,1.8,4.01,2.67.16-2,.33-4.01-.18-6.4h0Z"/>
  <path class="cls-17" d="M420.61,291.11s-.07.18-.32.33c-1.6,1.8-2.99,3.42-4.27,5.12-8.15,10.83-18.04,19.42-32.05,20.55-8.31.67-16.77-.65-25.46-1.24-4.52-1.15-8.75-2.14-12.98-3.14-7.05-2.68-10.13-6.88-8.47-12.52,6.04-8.2,11.13-16.46,20.89-22.2-.62,2.42-.88,3.46-1.39,4.72-5.54,12.59-1.17,25.18,10.13,30.1s23.55-.06,28.52-11.63c3.01-6.99,1.52-13.64-1.64-20.57.1-1.66.14-2.88.58-4.07,5.17,1.96,10.18,3.47,14.67,5.95,4.22,2.34,7.88,5.69,11.79,8.6h0Z"/>
  <path class="cls-17" d="M262.7,304.27c-.11,5.25-2.8,8.61-7.59,10.49-1.66.65-3.28,1.42-5.59,2.07-3.17.78-5.68,1.58-8.16,2.48-25.43,9.26-41.12,5.49-59.38-14.41-1.44-1.57-2.51-3.47-3.51-5.46,8.06-5.04,15.87-9.84,23.66-14.19-.59,1.64-1.22,2.82-1.74,4.03-4.13,9.62-1.22,21.47,6.61,26.97,8.98,6.31,20.51,5.85,28.08-1.13,7.75-7.14,9.02-18.64,3.15-28.27-1.01-1.65-1.89-3.38-2.48-4.85,8.75,2.76,15.37,7.77,20.7,14.66,2.01,2.59,4.16,5.07,6.25,7.6h0Z"/>
  <path class="cls-21" d="M348.75,444.18c-2.21,2.06-4.43,4.12-7.22,6.36-6.42,2.82-12.04,6.34-18.16,7.94-15.06,3.92-30.27,3.88-45.52-1.24-3.23-1.73-6.18-3.24-9.13-4.75.08-.49.17-.98.25-1.47,6.92-1.77,13.84-3.55,21.18-5.32,3.05-.2,5.69-.39,8.33-.62,5.9-.5,11.8-.98,17.68-1.56,2.3-.23,4.57-.71,7.35-1,3.27.06,6.04.04,9.22-.05,5.62.53,10.81,1.12,16.01,1.71h.01Z"/>
  <path class="cls-11" d="M271.87,386.74c4.15,0,8.3,0,13.08.14,10.02,8.44,20.51,8.7,27.8.84,0,0,0,.07.22,0,.41-.38.6-.69.78-1,0,0,0,.08.09-.02s.43-.1.43-.1c4.89.02,9.78.04,15.09.51.07,2.54-.28,4.62-.65,6.67-.01-.02.04-.01-.32-.16-.47.3-.59.75-.7,1.16,0-.03.06-.01-.19-.22-.59.03-.93.27-1.27.5.47.19.94.37,1.38.91-.34,1.47-.66,2.6-.97,3.72-.44,0-.87.02-1.98.04-1.45.67-2.23,1.32-3.01,1.97-.43,0-.87.01-1.81-.17-1.06.27-1.61.74-2.16,1.21-1.43.63-2.87,1.25-4.83,1.72-1.09.31-1.64.78-2.2,1.25-.78.31-1.56.61-2.95.69-2.08-.36-3.64-.91-4.99-.57-7.36,1.82-13.6-1.55-20.05-4.05-.78-.32-1.56-.63-2.71-1.35-1.46-1.13-2.55-1.86-3.9-2.8-4-2.88-5.93-6.21-4.21-10.9M283.02,396.85l8.51,2.48c.25-.47.5-.95.75-1.42-3.14-1.74-6.17-3.79-9.5-5.04-1.05-.39-2.9,1.38-4.39,2.16.19.45.37.91.56,1.36,1.08.15,2.16.3,4.06.46M311.94,395.39c-.8,1.17-1.61,2.35-2.85,4.17,3.11-1.41,5.14-2.47,7.28-3.24,2.12-.77,4.34-1.25,7.24-2.06-4.65-3.48-5.71-3.33-11.66,1.14h-.01Z"/>
  <path class="cls-1" d="M262.73,303.86c-2.12-2.12-4.28-4.6-6.29-7.19-5.32-6.88-11.95-11.89-20.89-14.82-1.67.07-2.8.52-4.26.8-8.53-3.98-20.19-2.44-26.59,3.16-1.01-.41-1.79-.71-2.57-1-7.81,4.79-15.61,9.59-23.91,14.66-.82.6-1.16.92-1.49,1.25-4-2.04-8-4.08-13.02-6.64,2.07-1.33,2.72-2.11,3.33-2.08,8.91.51,15.84-4.46,23.04-8.43,12.47-6.87,25.61-10.41,39.77-7.8,16.05,2.96,27.56,11.79,32.88,28.1h0Z"/>
  <path class="cls-1" d="M420.89,290.85c-4.19-2.65-7.85-6-12.07-8.34-4.48-2.48-9.5-4-14.91-6.19-2.49-.38-4.34-.49-6.42-.63-.22-.02-.66,0-1.05-.05-10.35-4.4-18.76-.76-26.87,5.2-.37.38-.35.67.02.97.09.03.25-.05.11.15-.34.48-.6.69-1.4.76-.83-.12-1.16-.17-1.49-.21.26-1.04.53-2.07,1.15-4.5-9.75,5.73-14.85,14-20.86,21.85.31-2.35.94-4.86,1.93-7.88,2.56-3.53,4.76-6.54,6.97-9.56,17.23-15.94,36.92-16.73,57.87-9.25,5.45,1.95,10.76,4.3,16.5,6.46,3.99.62,7.62,1.25,11.56,1.93-1.96,5.62-6.48,7.17-11.02,9.29h-.02Z"/>
  <path class="cls-10" d="M400.29,241.9c5.95,2.1,11.47,4.21,17.07,6.82-.22.72-.52.94-1.16,1.05-5.88-1.75-11.32-4.04-16.98-4.92-17.86-2.77-36.01-3.8-53.39-9.44-1.34-.43-4.08.71-4.89,1.96-1.75,2.67-2.73,5.88-3.81,8.93-.06.16,1.77,1.26,2.82,1.49,5.02,1.09,10.05,2.65,15.13,2.9,13.43.67,26.88.8,40.33,1.05,8.9.17,17.5,1.69,25.44,5.78-.31.59-.43.83-.55,1.07-9.61-3.9-19.63-4.6-29.85-3.99-16.67,1.01-33.17.3-49.48-3.86-8.83-2.25-11.43-8.27-6.02-16.98-.31,3.25-.57,5.95-.85,8.95.93-.35,1.35-.37,1.47-.57,6.33-10.3,6.22-9.72,18.1-7.43,15.29,2.94,30.78,4.84,46.61,7.17v.02h0Z"/>
  <path class="cls-2" d="M349.12,444.24c-5.57-.65-10.76-1.24-16.36-2.13,1.41-.62,3.24-1.25,5.04-1.21,3.79.08,7.58.5,11.36.79.14-.47.28-.94.43-1.41-5.23-3.13-10.41-6.34-15.69-9.37-6.8-3.91-13.7-5.02-20.53-.02-4.91,3.6-10.04,3.83-15.51,1.36-3.73-1.68-7.56-1.68-10.87.91-6.53,5.1-12.9,10.39-19.3,15.61.03,0,.03-.06-.19.03-.53.23-.7.48-.77,1.14-.36,1.08-.67,1.85-.99,2.62-.44-.07-.88-.15-1.67-.56-.42-.76-.48-1.18-.55-1.59,6.7-5.94,13.31-11.98,20.11-17.8,4.7-4.02,10.05-4.95,15.79-2.23,4.62,2.19,8.94,1.99,13.08-1.24,6.93-5.41,14.29-4.76,21.48-.83,5.53,3.02,10.74,6.62,16.1,9.95,3.27,2.03,6.55,4.05,9.81,6.06-3.11,0-6.77,0-10.8-.06l.03-.02h0Z"/>
  <path class="cls-8" d="M177.04,300.93c.03-.55.36-.87.93-1.22,1.48,1.72,2.56,3.62,4,5.19,18.27,19.89,33.95,23.67,59.38,14.41,2.48-.9,5-1.7,7.88-2.5-6.27,2.96-12.67,6.98-19.63,8.6-19.69,4.58-36.04-1.79-48.69-17.47-1.57-1.95-2.4-4.5-3.88-7h.01Z"/>
  <path class="cls-6" d="M213.91,371.11c9.37,2.32,10.92,5.63,6.53,13.21-2.43,4.19-6.15,5.21-10.51,2.88-3.69-1.98-5.13-7-3.79-10.74,1.33-3.72,3.35-5.77,7.78-5.34h-.01Z"/>
  <path class="cls-6" d="M244.45,425.12c-1.13,3.74-2.57,6.64-6.74,6.62-4.05-.01-9.41-3.96-10.38-8.06-.85-3.61.96-6.04,3.85-8.35,2.7-2.16,5.07-2.91,8.03-1.2,4.06,2.35,6.58,5.54,5.24,10.98"/>
  <path class="cls-10" d="M358.8,316.03c8.4.43,16.86,1.75,25.17,1.08,14.01-1.13,23.9-9.72,32.05-20.55,1.28-1.7,2.67-3.32,4.35-5.08.36.14.39.38.51.95-6.93,18.65-29.06,30.81-50.36,27.94-3.74-.5-7.39-1.58-11.41-2.96-.32-.84-.32-1.11-.31-1.39h0Z"/>
  <path class="cls-2" d="M278.13,457.46c14.98,4.9,30.19,4.94,45.25,1.01,6.12-1.59,11.74-5.12,17.95-7.74-4.39,5.93-10.86,9.16-18.03,10.61-15.46,3.11-30.96,4.67-46.11-2.63.24-.74.59-.99.94-1.25Z"/>
  <path class="cls-6" d="M283.05,225.32c2.87-3.2,4.78-7.46,10.16-5.37,4.29,1.66,4.21,5.34,3.26,8.28-.79,2.43-3.34,5.39-5.61,5.9-1.9.43-4.77-2.07-6.7-3.84-.99-.91-.86-3.04-1.11-4.97Z"/>
  <path class="cls-6" d="M354.15,197.88c5.4-.8,7.18,2.57,7.28,6.42.09,3.18.14,7.08-4.93,7.77-4.72.64-7.03-2.1-8.19-5.58-1.53-4.54,1.47-7.07,5.84-8.62h0Z"/>
  <path class="cls-6" d="M342.61,179.37c.15,7.26-1.44,10.03-6.02,9.15-2.78-.53-6.64-2.84-7.33-5.16-1.14-3.82,2.36-6.58,5.84-8.07,3.66-1.58,5.92.5,7.51,4.08Z"/>
  <path class="cls-6" d="M296.85,185.78c-1.95-2.11-5.12-4.62-4.7-6.13.73-2.61,3.35-5.2,5.85-6.6,1.28-.72,5.59.84,5.79,1.9.62,3.22.3,6.8-.56,10-.21.77-3.9.61-6.38.82h0Z"/>
  <path class="cls-6" d="M345.82,282.06c-2.05,3.38-4.25,6.39-6.77,9.56-2.3-.65-5.42-.96-6.05-2.37-1.5-3.36,1.33-9.91,4.33-11.02,3.62-1.34,6.31.48,8.49,3.83Z"/>
  <path class="cls-20" d="M283.09,342.19c-.23,2.2-.45,3.93-.71,5.86-.5-.53-.82-.87-1.36-1.27-.26-8.97.06-17.89-.48-26.76-.27-4.5-2.08-8.92-3.28-13.74,4.93,5.02,7.37,20.58,5.83,35.9h0Z"/>
  <path class="cls-3" d="M282.71,402.16c6.43,2.12,12.67,5.49,20.03,3.67,1.34-.33,2.91.21,4.67.6-5.01,3.6-10.72,4.75-16.43,1.81-2.92-1.5-7.82-.54-8.28-6.08h.01Z"/>
  <path class="cls-20" d="M316.79,320.73c.31-1.1.63-2.2.85-3.64.41-.88.91-1.42,1.2-1.73-.7,11.54-1.39,23-2.1,34.94-.68-1.23-1.98-2.97-1.9-4.64.38-7.73,1.14-15.44,1.86-23.79.1-.81.1-.98.1-1.15h0Z"/>
  <path class="cls-20" d="M277.85,457.23c-.07.48-.42.73-.95,1.25-3.7-1.61-7.23-3.49-10.95-5.65.12-1.05.44-1.82,1.05-2.95.44-.63.59-.9.73-1.17,0,0,0,.06.37.15,7.4-1.41,14.43-2.91,21.5-4.1.08.52.1.73.13.93-6.92,1.77-13.84,3.55-20.77,5.32-.08.49-.17.98-.25,1.47,2.95,1.51,5.91,3.01,9.13,4.75h.01Z"/>
  <path class="cls-11" d="M318.23,207.45c4.02-1.16,4.88,1.84,4.21,3.75-.74,2.1-3.16,3.7-5.14,5.12-.23.17-2.91-1.97-3.33-3.37-.92-3.04.38-5.19,4.26-5.5Z"/>
  <path class="cls-3" d="M327.04,399.71c-.06-1.13.26-2.26.64-3.94.07-.56.09-.99.09-.99,0,0-.06-.02.22-.03.45-.33.61-.65.78-.97,0,0-.05-.01.31-.11,1.17-3.37,1.99-6.65,2.8-9.92,5.85,7.06,3.81,13.94-4.84,15.97h0Z"/>
  <path class="cls-2" d="M416.54,249.89c.3-.22.6-.44,1.05-.9,3.61,2.68,7.07,5.59,10.82,8.68,1.71,2.25,3.13,4.33,4.43,6.75-.07.23-.11.34-.11.34-2.98-1.41-5.96-2.81-8.9-4.64.32-.72.61-1.02,1.08-1.42.28-.22.44-.43.43-.44-.2-.18-.43-.34-.62-.5.02,0,.02.04-.08-.29-2.76-2.74-5.43-5.16-8.1-7.58h0Z"/>
  <path class="cls-20" d="M252.7,324.75c-4.12,6.55-15.92,13.32-21.27,12.8,6.49-4.08,13.58-8.54,20.99-12.88.32.11.28.08.28.08h0Z"/>
  <path class="cls-20" d="M271.87,386.37c-1.72,5.06.21,8.39,4.16,11.46.03.58-.15.77-.32.97-8.15-3.83-9-10.13-2.37-19.84-.29,2.24-.88,4.64-1.47,7.41Z"/>
  <path class="cls-20" d="M353.14,325.52c4.51,2.03,8.71,3.87,12.73,5.64-5.26,1.38-15.25-3.7-20.28-11.13,2.41,1.77,4.82,3.54,7.54,5.5h.01Z"/>
  <path class="cls-20" d="M331.77,383.39c-.71,3.62-1.52,6.9-2.68,10.3,0-1.96.36-4.04.65-6.53-.41-2.24-.76-4.08-1.31-6.2-1.05-1.16-1.89-2.05-3.64-3.89,5.46-.15,5.51,3.62,6.98,6.32h0Z"/>
  <path class="cls-12" d="M278.22,278.25c1.07,2.54,1.95,4.75,2.83,6.96-.38.17-.75.34-1.13.5-2.77-5.21-5.54-10.42-8.31-15.64.38-.23.77-.46,1.15-.69,1.76,2.85,3.52,5.69,5.46,8.87h0Z"/>
  <path class="cls-13" d="M344.13,273.18c4.14-3.07,8.28-6.14,12.42-9.21l1.11,1.5c-4.04,2.74-8.08,5.49-12.63,8.15-.64-.2-.77-.32-.9-.45h0Z"/>
  <path class="cls-20" d="M358.5,315.87c.29.43.28.71.26,1.39-4.26-1.06-8.5-2.54-12.99-4.27,3.98.73,8.21,1.73,12.73,2.88h0Z"/>
  <g id="Noose">
    <path class="cls-20" d="M313.53,359.16c-1.2,1.34-2.52,2.35-3.84,3.35-.38-1.41-.77-2.81-1.15-4.22,1.63.18,3.25.35,4.99.87h0Z"/>
    <path class="cls-20" d="M304.52,361.74c-.38,1.76-1.01,3.28-1.64,4.8-.96-1.07-2.76-2.19-2.7-3.19.15-2.34,1.73-3.4,4.34-1.61Z"/>
    <path class="cls-20" d="M313.45,366.96c-.41,1.74-1.08,3.2-1.76,4.67l-3.06-3.09c1.52-.62,3.04-1.23,4.82-1.58h0Z"/>
  </g>
  <path class="cls-12" d="M250.24,275.32l-12.9-6.61c.23-.45.46-.91.68-1.36,4.18,2.21,8.37,4.43,12.54,7.11,0,.48-.33.86-.33.86h.01Z"/>
  <path class="cls-12" d="M290.37,487.6c-.06,6.91-3.18,8.98-8.85,5.75.21-.62.38-.77.86-.8,5.36,1.41,6.72.08,6.26-5.69.35-.34.48-.47.62-.61.31.4.62.79,1.12,1.35h-.01Z"/>
  <path class="cls-12" d="M323.74,481.78c-2.21.4-4.66.54-7.44.51-.3-2.24-.27-4.3.12-6.42.35-.06.31-.09.34.3-.29,5.2,1.81,6.65,6.24,4.86.16.17.33.33.74.75h0Z"/>
  <path class="cls-20" d="M263.23,450.6c.38.22.45.64.53,1.37-2.13,1.14-4.27,1.97-6.42,2.79-.19-.48-.38-.96-.57-1.45,2.04-.84,4.09-1.68,6.45-2.71h0Z"/>
  <path class="cls-12" d="M368.05,459.04c-.16-.14-.31-.27-.69-.63"/>
  <path class="cls-12" d="M303.42,487.54c1.61.37,3.12.77,4.58,1.63-.22.6-.39.75-.94.79-1.93-.03-3.47.05-5.24-.1-.38-.37-.54-.51-.7-.65.43-.44.86-.89,1.56-1.49.27-.16.64-.14.73-.17h.01Z"/>
  <path class="cls-12" d="M276.44,507.02c-.42-.32-.84-.64-1.49-1.09-.13-2.05-.03-3.98.33-6.12.41-.07.57.08.86.76.49,2.19.86,3.86,1,5.75-.39.39-.54.54-.7.7h0Z"/>
  <path class="cls-12" d="M281.29,493.09c-.66-1.68-1.04-3.56-1.37-5.84.35-.48.6-.64,1.02-.96.35.03.49.17.76.91.2,2.14.28,3.69.36,5.23-.17.15-.33.3-.77.66h0Z"/>
  <path class="cls-3" d="M275.8,399.15c.08-.54.26-.73.5-1.11,1.14.54,2.23,1.28,3.37,2.37-1.23-.07-2.5-.49-3.87-1.26Z"/>
  <path class="cls-10" d="M424.71,258.8c-.28.3-.56.6-1.12,1.05-1.13-.2-1.98-.56-3.07-1.08-.11-.4.01-.64.58-1.21,1.51-.14,2.56.04,3.62.23,0,0,0-.04-.07.22-.03.44,0,.61.05.79h.01Z"/>
  <path class="cls-3" d="M322,401.69c.46-.63,1.24-1.28,2.36-1.94-.45.64-1.24,1.28-2.36,1.94Z"/>
  <path class="cls-3" d="M318,402.72c.25-.44.8-.91,1.54-1.17-.29.52-.77.83-1.54,1.17Z"/>
  <path class="cls-3" d="M310.98,405.7c.25-.45.81-.92,1.55-1.19-.29.52-.77.85-1.55,1.19Z"/>
  <path class="cls-13" d="M344.71,273.75c-.41.6-1.01,1-1.61,1.4.2-.55.39-1.1.81-1.81.35-.04.49.09.8.41Z"/>
  <path class="cls-23" d="M437.97,317.9c-.06-.77.12-1.28.51-1.97.52.33.85.84.73,1.58-.63.36-.81.51-1.23.4h-.01Z"/>
  <path class="cls-2" d="M432.72,264.76c.24.06.48.12.72.19-.2.09-.4.19-.66.05-.04-.15-.06-.23-.06-.23h0Z"/>
  <path class="cls-12" d="M251.73,275.75c.22.17.43.34.65.51-.23,0-.47-.01-.69-.25.02-.23.04-.26.04-.26Z"/>
  <path class="cls-20" d="M252.77,324.8c.06-.2.09-.42.12-.64.05.15.11.29-.01.51-.18.08-.13.11-.11.13Z"/>
  <path class="cls-25" d="M258.75,237.49c-.27.17-.58.05-.95-.38.26-.18.59-.04.95.38Z"/>
  <path class="cls-12" d="M250.73,274.76c.43.04.7.26.98.73.02.26,0,.28-.01.3-.36-.02-.71-.06-1.25-.29-.2-.19.12-.57.29-.75h0Z"/>
  <path class="cls-2" d="M135.14,295.49c3.11,6.82,5.85,13.92,8.58,21.02-.51.2-1.02.4-1.53.61-1.21-2.75-2.42-5.5-3.68-8.36-4.5,4.61-5.55,11.84-2.45,18.05,1.69,3.39,3.93,6.5,5.91,10.2-.12.59-.23.72-.34.84-10.36-8.75-12.05-19.4-5.19-30.74.72-1.18.15-3.34-.23-4.95-.41-1.76-1.3-3.41-2.06-5.46.15-.55.38-.75.99-1.22h0Z"/>
  <path class="cls-2" d="M142.15,337.3c.42.28.67.74.91,1.19-.41-.04-.82-.09-1.33-.39.01-.38.12-.5.41-.8h.01Z"/>
  <path class="cls-12" d="M283.74,506.78c-2.19.5-4.64.74-7.2.61.05-.53.21-.68.92-.87,2.2-.19,3.85-.36,5.5-.52.17.17.35.35.78.78Z"/>
  <path class="cls-12" d="M308.23,489.43c.5-.04.69.14.94.52-.04.33-.18.49-.77.78-.72-.07-.89-.34-.96-.67.17-.15.34-.3.78-.63h.01Z"/>
  <path class="cls-2" d="M466.13,262.43c-1.66,4.38-3.29,8.41-5.15,13.13-1.29,4.08-2.35,7.48-3.64,11.17-1.36,2.91.35,3.5,2.34,3.93,0,.02-.03.05-.03.05,5.4,8.2,4.17,20.61-2.7,24.09.36-.93.63-1.6.96-2.61,4.76-10.09,4.37-15.28-1.92-21.48-.99,2.79-1.91,5.39-2.83,7.99-.46-.14-.93-.28-1.39-.41,1.28-4.76,2.26-9.63,3.92-14.25,3.01-8.38,6.38-16.64,9.72-24.9.97-2.4,2.46-3.69,3.77-1.49-1.14,1.69-2.07,3.07-3.04,4.8v-.02h0Z"/>
  <path class="cls-26" d="M457.57,286.43c1.06-3.4,2.11-6.8,3.32-10.49,2.04-.96,3.93-1.63,6.65-2.59-2.76,5.7-1.07,12.71-7.47,17.14-.43.21-.4.18-.14-.2-.62-1.54-1.48-2.7-2.35-3.86h-.01Z"/>
  <path class="cls-20" d="M312.41,387.53c-6.94,8.05-17.43,7.79-27.08-.67.53-.17,1.6-.5,2.1-.11,8.09,6.34,16.28,6.3,24.98.78h0Z"/>
  <path class="cls-28" d="M294.93,373.96c1.48,1.36,2.76,2.68,3.58,4.24.18.33-1.36,2.26-1.97,2.19-1.32-.15-3.57-1.08-3.6-1.76-.06-1.52,1.01-3.08,1.98-4.67h0Z"/>
  <path class="cls-28" d="M307.25,374.21c.17,2.2,0,4.2-.16,6.21-1.39-.87-3.64-1.47-4.01-2.67-.94-2.96.75-4.32,4.17-3.54h0Z"/>
  <path class="cls-20" d="M313.42,386.73c.16.3-.03.61-.48.99-.13-.28,0-.63.48-.99Z"/>
  <path class="cls-18" d="M316.64,320.82c.15.09.15.26.04.66-.21.05-.33-.13-.4-.33-.02-.05.13-.16.36-.33h0Z"/>
  <path class="cls-20" d="M314.22,386.51c.06.09-.28.09-.41.2-.05-.15.12-.28.41-.2Z"/>
  <path class="cls-10" d="M356.56,282.73c.57-.18.9-.13,1.68.36-.94,4.38-3.99,8.08-1.35,12.99,1.94,7.63,5.36,13.83,13.34,15.51,14.16,2.99,27.65-6.98,23.26-25.09-1.13-3.03-2.17-5.72-2.93-8.27,1.18,1.04,2.08,1.94,2.97,2.85,3.21,6.48,4.7,13.13,1.69,20.12-4.98,11.57-17.22,16.55-28.52,11.63-11.3-4.92-15.68-17.51-10.13-30.1h-.01Z"/>
  <path class="cls-14" d="M393.57,280.63c-.95-.45-1.84-1.35-3.04-2.37-.3-.12-.35-.14-.43-.41-.85-.89-1.63-1.51-2.4-2.13,1.86.12,3.72.23,5.81.59.2,1.45.15,2.66.05,4.33h.01Z"/>
  <path class="cls-10" d="M231.64,282.82c1.12-.45,2.25-.91,3.56-1.2,1.14,1.86,2.02,3.58,3.03,5.23,5.87,9.63,4.6,21.12-3.15,28.27-7.57,6.98-19.1,7.45-28.08,1.13-7.83-5.51-10.75-17.35-6.61-26.97.52-1.22,1.15-2.39,1.74-4.03.79-.15,1.57.15,2.53.92-.58,2.31-1.43,4.12-2.11,5.98-6.04,16.51,6.07,26.46,20.03,26.08,7.37-.2,13.28-5.22,16.04-12.56,2.64-7.02.71-13.39-3.66-19.16-1-1.32-2.21-2.47-3.32-3.7h0Z"/>
  <path class="cls-29" d="M289.56,444.45c-7.03,1.5-14.05,3-21.48,4.41,6.03-5.3,12.41-10.6,18.93-15.69,3.31-2.59,7.14-2.59,10.87-.91,5.47,2.47,10.6,2.24,15.51-1.36,6.83-5.01,13.72-3.89,20.53.02,5.28,3.03,10.46,6.24,15.69,9.37-.14.47-.28.94-.43,1.41-3.79-.28-7.57-.71-11.36-.79-1.81-.04-3.63.59-5.46,1.28-2.79.38-5.55.41-9.06.15-2.57-.6-4.43-1.31-6.21-1.15-6.08.52-12.13,1.34-18.19,2.07-3.11.37-6.22.8-9.32,1.2h-.02Z"/>
  <path class="cls-2" d="M289.6,444.76c3.06-.71,6.16-1.14,9.28-1.52,6.06-.73,12.11-1.55,18.19-2.07,1.78-.15,3.64.56,5.71,1.07-2.04.56-4.32,1.05-6.61,1.28-5.89.58-11.79,1.06-17.68,1.56-2.64.23-5.28.42-8.33.62-.44-.21-.47-.42-.55-.94h-.01Z"/>
  <path class="cls-10" d="M282.61,396.85c-1.49-.15-2.57-.3-3.65-.45-.19-.45-.37-.91-.56-1.36,1.48-.78,3.34-2.55,4.39-2.16,3.33,1.25,6.35,3.3,9.5,5.04-.25.47-.5.95-.75,1.42-2.84-.83-5.68-1.66-8.92-2.49h-.01Z"/>
  <path class="cls-10" d="M312.21,395.15c5.68-4.22,6.74-4.37,11.39-.89-2.89.81-5.12,1.29-7.24,2.06-2.13.78-4.16,1.84-7.28,3.24,1.25-1.82,2.05-3,3.12-4.42h.01Z"/>
  <path class="cls-20" d="M327.52,394.57c.25.2.22.63.18.85-.51.03-.98-.16-1.45-.34.34-.24.68-.47,1.27-.5h0Z"/>
  <path class="cls-20" d="M328.41,393.62c.2.46.03.78-.42,1.15-.17-.4-.06-.85.42-1.15Z"/>
  <path class="cls-13" d="M231.3,282.65c1.45,1.4,2.66,2.56,3.66,3.88,4.37,5.77,6.3,12.14,3.66,19.16-2.76,7.34-8.67,12.36-16.04,12.56-13.97.38-26.07-9.57-20.03-26.08.68-1.87,1.53-3.67,2.35-5.87,6.22-6.08,17.87-7.63,26.4-3.64M207.9,297.23c.05,6.92,4.73,11.79,11.69,12.18,4.63.26,9.14-3.34,10.45-8.34,1.21-4.63-1.18-10.14-5.33-12.34-4.13-2.19-9.18-1.36-12.63,1.66-2.02-.23-4.9-1.41-5.88-.52-2.76,2.52.15,4.54,1.72,7.36h-.02,0Z"/>
  <path class="cls-20" d="M390.25,278.11c1.06,2.67,2.1,5.36,2.9,8.42-2.54,2.01-4.84,3.66-7.24,4.93-2.9-10.68-11.61-14.17-18.58-7.76-2.1-.41-3.84-.68-5.74-1.19-.7-.4-1.22-.57-1.75-.75,0,0-.17.08-.17-.2.01-.46.03-.63.04-.81,7.97-5.87,16.38-9.51,26.74-4.74,1.51.98,2.62,1.54,3.74,2.11,0,0,.05.02.06,0h0Z"/>
  <path class="cls-5" d="M359.69,281.96c.67-.03,1.2.15,1.75.83-2.84,4.01-.07,6.12,2.05,8.85.07,1.66.05,2.87-.39,4.08-2.35-.01-4.28-.02-6.21-.02-2.65-4.53.41-8.23,1.84-12.54.36-.51.61-.73.96-1.2h0Z"/>
  <path class="cls-10" d="M390.11,277.84c-1.04-.29-2.15-.86-3.28-1.79,0-.37.44-.38.66-.36.99.64,1.77,1.26,2.62,2.15h0Z"/>
  <path class="cls-10" d="M359.56,280.84c.13.09.11.26.01.69-.36-.02-.39-.31-.01-.69Z"/>
  <path class="cls-5" d="M424.63,257.47c-.96.14-2.02-.04-3.34-.25-8.4-3.76-16.99-5.28-25.89-5.45-13.45-.26-26.9-.38-40.33-1.05-5.08-.25-10.11-1.81-15.13-2.9-1.05-.23-2.88-1.33-2.82-1.49,1.08-3.06,2.05-6.26,3.81-8.93.82-1.24,3.55-2.39,4.89-1.96,17.38,5.64,35.53,6.67,53.39,9.44,5.66.88,11.1,3.17,16.98,4.92,3.01,2.53,5.67,4.94,8.44,7.69v-.02h0Z"/>
  <path class="cls-29" d="M267.52,448.8c.07.19-.07.45-.47.77-.23-.29-.06-.54.47-.77Z"/>
  <path class="cls-15" d="M356.95,362.29c-.93,1.52-2.03,2.75-3.14,3.98-.61-1.17-1.22-2.34-1.83-3.51,1.6-.26,3.2-.51,4.97-.47h0Z"/>
  <path class="cls-5" d="M424.9,258.7c-.23-.07-.27-.24-.26-.68.27-.1.49.06.69.24.01,0-.16.22-.43.44h0Z"/>
  <g id="Chin">
    <path class="cls-12" d="M348.73,488.28c-2.12.42-4.7,1.76-6.21.99-1.46-.74-2.61-3.71-2.49-5.61.21-3.17,2.64-4.67,6.35-4.28,3.18,1.55,5.06,3.62,4.18,7.5-.5.73-.91,1.08-1.87,1.08-.31-1.13.36-2.26.07-2.62-1.16-1.42-2.61-2.6-3.95-3.88-1.08,1.2-2.16,2.39-3.23,3.59,1.49,1.12,2.9,2.39,4.51,3.3.66.37,1.75-.03,2.64-.08h0Z"/>
    <path class="cls-12" d="M278.52,497.64c7.36,1.81,8.64,3.93,5.58,9.53-.74-.21-.91-.38-.88-.88-.11-2.13.11-4.99-.88-5.49-1.49-.76-3.82.11-6.03.07-.4-.37-.56-.52-.72-.66.89-.8,1.77-1.61,2.93-2.57Z"/>
    <path class="cls-12" d="M321.43,473.32c4.2,2.01,5.86,4.78,2.69,8.88-.74-.22-.9-.39-.82-.88-.08-2.06.08-4.87-.84-5.29-1.54-.7-3.77.14-5.69.34.02.01.06.05.06.05,1.41-1.01,2.83-2.03,4.6-3.1h0Z"/>
    <path class="cls-12" d="M281.2,486.79c2.41-2.74,4.99-2.98,7.93-.21.05.42-.09.56-.75.76-2.46.15-4.38.22-6.52.08-.36-.36-.51-.49-.65-.63h0Z"/>
    <path class="cls-12" d="M323.69,495.72c7.24-2.63,10.3-.53,9.92,6.78-2.92,3.47-6.22,4.52-9.74,1.78-3.11-2.42-2.76-5.38-.18-8.56M331.66,501.33c-.91-1.61-1.51-4.12-2.82-4.58-1.24-.43-3.53,1-4.75,2.22-.54.54.39,3.73.7,3.74,2.17.06,4.35-.4,6.87-1.39h0Z"/>
    <path class="cls-12" d="M306.73,516.29c-2.53,3.58-5.2,1.88-7.34-.19-2.21-2.14-2.31-5.43.34-6.83,2.18-1.15,5.96-1.48,7.9-.31,2.85,1.72,2.74,5.02-.84,7.09-.36-.78.16-1.23.12-1.61-.19-1.6-.05-3.77-1.01-4.6-.84-.73-3.27-.42-4.46.32-.9.55-1.69,3.09-1.22,3.68.96,1.19,2.78,1.74,4.32,2.37.63.26,1.45.07,2.18.09h.01Z"/>
    <path class="cls-12" d="M309.34,490.73c2.24,3.1,1.35,6.09-1.66,7.37-1.91.81-5.3.32-6.94-.96-2.05-1.6-2.71-4.62.22-7.13.39-.04.55.1.8.79.29,2.31.19,4.21.87,5.76.25.58,3.07.91,3.45.4,1.13-1.51,1.64-3.49,2.62-5.52.37-.39.51-.55.66-.71h-.02,0Z"/>
    <path class="cls-17" d="M348.75,488.32c-.91.01-2,.41-2.66.04-1.61-.91-3.02-2.18-4.51-3.3,1.08-1.2,2.16-2.39,3.23-3.59,1.34,1.27,2.8,2.45,3.95,3.88.29.36-.38,1.49-.34,2.62.26.35.34.38.33.34h0Z"/>
    <path class="cls-4" d="M283.22,506.29c-1.85.49-3.5.65-5.47.61-.69-1.87-1.06-3.53-1.32-5.5,2.09-.49,4.42-1.37,5.91-.6.99.51.76,3.37.88,5.49h0Z"/>
    <path class="cls-4" d="M282.44,493.17c-.4-1.67-.49-3.21-.47-5.14,2.02-.46,3.95-.54,6.2-.48.99,5.7-.37,7.03-5.72,5.62h-.01Z"/>
    <path class="cls-17" d="M323.3,481.32c-4.68,2.11-6.78.66-6.51-4.56,1.89-.6,4.13-1.43,5.67-.73.92.42.76,3.23.84,5.29Z"/>
    <path class="cls-17" d="M307.13,490.58c.45.43.62.7,1.11,1-.53,1.89-1.04,3.88-2.17,5.39-.38.51-3.19.18-3.45-.4-.68-1.55-.58-3.45-.65-5.53,1.69-.4,3.23-.47,5.16-.45h0Z"/>
  </g>
  <path class="cls-17" d="M331.43,501.06c-2.35.64-4.53,1.11-6.69,1.04-.32,0-1.24-3.2-.7-3.74,1.22-1.22,3.51-2.65,4.75-2.22,1.31.45,1.91,2.96,2.65,4.92h-.01Z"/>
  <path class="cls-17" d="M306.69,515.71c-.76-.06-1.57.13-2.2-.13-1.54-.64-3.36-1.19-4.32-2.37-.48-.59.32-3.13,1.22-3.68,1.19-.73,3.62-1.04,4.46-.32.96.84.82,3,1.01,4.6.05.38-.48.83-.48,1.57.26.32.34.37.32.32h-.01Z"/>
  <path class="cls-19" d="M457.34,286.72c1.1.87,1.97,2.03,2.59,3.55-2.23-.05-3.95-.64-2.59-3.55Z"/>
  <path class="cls-13" d="M356.88,296.08c1.94-.37,3.87-.36,6.41-.06,3.98,6.24,7.82,8.41,12.95,7.29,6.1-1.33,9.04-4.78,9.76-11.48,2.3-1.65,4.6-3.3,7.23-4.97,4.63,17.75-8.85,27.71-23.02,24.72-7.97-1.68-11.39-7.89-13.34-15.51h.01Z"/>
  <path class="cls-9" d="M212.71,290.71c2.81-3.34,7.86-4.18,11.99-1.98,4.16,2.21,6.54,7.72,5.33,12.34-1.3,5-5.81,8.61-10.45,8.34-6.96-.39-11.64-5.27-11.35-12.59,3.99-.67,5.09-2.77,4.47-6.11h.01Z"/>
  <path class="cls-4" d="M212.39,290.55c.95,3.51-.16,5.61-4.16,5.85-1.89-1.99-4.8-4.02-2.05-6.53.98-.9,3.87.28,6.2.68h0Z"/>
  <path class="cls-1" d="M385.9,291.46c-.62,7.07-3.56,10.52-9.66,11.85-5.14,1.12-8.97-1.05-12.54-7.29-.17-1.51-.15-2.72.12-4.46,4.54-1.39,5.97-3.68,3.86-7.74,6.61-6.54,15.32-3.05,18.22,7.63h0Z"/>
  <path class="cls-17" d="M367.32,283.7c2.48,4.19,1.05,6.48-3.59,7.43-2.37-2.21-5.14-4.32-2.13-8.1,1.89,0,3.62.27,5.72.67h0Z"/>
  <path class="cls-15" d="M360.18,400.18c1.6-.26,3.2-.51,4.97-.47-.93,1.52-2.03,2.75-3.14,3.98"/>
  <g id="Right_cheek" data-name="Right cheek">
    <g>
      <path class="cls-6" d="M381.15,428.2c-2.12-2.21-4.92-4.11-5.35-6.43-.38-2.1,1.26-5.39,3.06-6.82,1.57-1.25,5.58-1.71,6.81-.62,2.23,1.98,4.04,5.29,4.34,8.22.17,1.65-2.86,3.84-4.77,5.38-.82.66-2.47.3-4.1.27h0Z"/>
      <path class="cls-6" d="M361.53,367.44c-2.36,4.16-6.31,5.61-9.37,3.48-2.7-1.88-5.05-6.04-5.13-9.24-.05-2.15,3.85-4.93,6.53-6.46,2.7-1.55,8.27,2.27,8.55,5.49.18,2.11-.21,4.26-.57,6.74M353.39,362.2h-.05c-.92.16-1.43,1.16-1,1.99l.02.04c.46.88,1.68.99,2.3.21.01-.01.02-.03.03-.04.76-.98-.08-2.38-1.3-2.19h0Z"/>
      <path class="cls-6" d="M355.87,396.92c3.75-3.81,8.24-3.45,10.64-.24,1.61,2.15.78,6.7-.14,9.83-.31,1.07-4.89,2.22-6.31,1.35-2.36-1.45-3.95-4.37-5.41-6.94-.44-.78.63-2.43,1.22-4.01h0Z"/>
    </g>
    <path class="cls-15" d="M381.79,418.34c6.47,2.8,5.81,2.53,4.52,1.96-.94.91-1.88,1.82-2.81,2.73-.65-1.48-1.31-2.95-1.71-4.69Z"/>
  </g>
</svg>